<svg xmlns="http://www.w3.org/2000/svg" xmlns:xlink="http://www.w3.org/1999/xlink" width="290" zoomAndPan="magnify" viewBox="0 0 217.5 67.499998" height="90" preserveAspectRatio="xMidYMid meet" version="1.0"><defs><g/><clipPath id="8882665837"><path d="M 8.601562 14.90625 L 206.171875 14.90625 L 206.171875 52.097656 L 8.601562 52.097656 Z M 8.601562 14.90625 " clip-rule="nonzero"/></clipPath><clipPath id="92aeba378d"><path d="M 11.582031 14.90625 L 203.148438 14.90625 C 203.9375 14.90625 204.695312 15.222656 205.253906 15.78125 C 205.8125 16.339844 206.125 17.09375 206.125 17.886719 L 206.125 49.117188 C 206.125 49.910156 205.8125 50.664062 205.253906 51.222656 C 204.695312 51.78125 203.9375 52.097656 203.148438 52.097656 L 11.582031 52.097656 C 10.789062 52.097656 10.03125 51.78125 9.472656 51.222656 C 8.914062 50.664062 8.601562 49.910156 8.601562 49.117188 L 8.601562 17.886719 C 8.601562 17.09375 8.914062 16.339844 9.472656 15.78125 C 10.03125 15.222656 10.789062 14.90625 11.582031 14.90625 Z M 11.582031 14.90625 " clip-rule="nonzero"/></clipPath><clipPath id="e67eb48288"><path d="M 22 21 L 43.984375 21 L 43.984375 46.660156 L 22 46.660156 Z M 22 21 " clip-rule="nonzero"/></clipPath></defs><g clip-path="url(#8882665837)"><g clip-path="url(#92aeba378d)"><path fill="#41b010" d="M 8.601562 14.90625 L 206.171875 14.90625 L 206.171875 52.097656 L 8.601562 52.097656 Z M 8.601562 14.90625 " fill-opacity="1" fill-rule="nonzero"/></g></g><g clip-path="url(#e67eb48288)"><path fill="#ffffff" d="M 44.113281 32.289062 C 44.101562 38 40.355469 42.53125 35.007812 43.378906 C 33.363281 43.640625 31.679688 43.675781 30.128906 42.828125 C 29.800781 42.644531 29.5625 42.808594 29.304688 42.980469 C 28.09375 43.792969 26.875 44.59375 25.65625 45.398438 C 25.386719 45.574219 25.109375 45.75 24.824219 45.898438 C 24.417969 46.117188 23.988281 46.390625 23.527344 46.066406 C 23.035156 45.714844 23.1875 45.207031 23.289062 44.726562 C 23.609375 43.183594 23.957031 41.640625 24.53125 40.175781 C 24.847656 39.375 24.753906 38.789062 24.292969 38.078125 C 21.667969 34.03125 22.035156 28.617188 25.191406 24.960938 C 27.84375 21.886719 31.238281 20.609375 35.222656 21.390625 C 39.355469 22.203125 42.0625 24.796875 43.503906 28.722656 C 43.945312 29.929688 44.140625 31.1875 44.113281 32.289062 Z M 24.777344 44.167969 C 24.820312 44.210938 24.867188 44.25 24.910156 44.289062 C 26.066406 43.53125 27.234375 42.78125 28.371094 42 C 28.945312 41.605469 29.476562 41.488281 30.1875 41.664062 C 31.761719 42.050781 33.371094 42.300781 35 41.992188 C 40.8125 40.902344 44.222656 34.777344 42.136719 29.054688 C 40.84375 25.507812 38.3125 23.25 34.554688 22.667969 C 30.992188 22.121094 28.019531 23.382812 25.8125 26.253906 C 23.28125 29.550781 23.15625 34.191406 25.476562 38.023438 C 25.890625 38.707031 25.96875 39.339844 25.785156 40.066406 C 25.449219 41.433594 25.109375 42.804688 24.777344 44.167969 Z M 24.777344 44.167969 " fill-opacity="1" fill-rule="nonzero"/></g><path fill="#ffffff" d="M 28.203125 29.445312 C 28.226562 28.738281 28.410156 28.070312 28.75 27.457031 C 29.234375 26.589844 30.042969 26.496094 30.726562 27.199219 C 31.132812 27.613281 31.496094 28.066406 31.800781 28.558594 C 32.179688 29.179688 32.296875 29.800781 31.84375 30.4375 C 31.574219 30.816406 31.667969 31.1875 31.890625 31.539062 C 32.382812 32.300781 32.953125 33 33.621094 33.617188 C 34.125 34.082031 34.710938 34.09375 35.28125 33.738281 C 35.863281 33.375 36.429688 33.222656 37 33.71875 C 37.6875 34.320312 38.394531 34.9375 38.226562 35.980469 C 38.113281 36.675781 37.539062 37.011719 36.957031 37.246094 C 35.410156 37.878906 33.925781 37.636719 32.632812 36.644531 C 30.597656 35.082031 29.214844 33.027344 28.363281 30.613281 C 28.234375 30.238281 28.183594 29.847656 28.203125 29.445312 Z M 28.203125 29.445312 " fill-opacity="1" fill-rule="nonzero"/><path fill="#ffffff" d="M 40.539062 30.210938 C 39.984375 30.015625 39.683594 29.589844 39.476562 29.089844 C 38.800781 27.457031 37.792969 26.117188 36.226562 25.234375 C 36.039062 25.128906 35.757812 25.007812 35.886719 24.714844 C 36 24.449219 36.285156 24.515625 36.503906 24.558594 C 37.304688 24.710938 37.96875 25.121094 38.550781 25.671875 C 39.476562 26.546875 40.152344 27.585938 40.574219 28.789062 C 40.738281 29.261719 40.789062 29.726562 40.539062 30.207031 Z M 40.539062 30.210938 " fill-opacity="1" fill-rule="nonzero"/><path fill="#ffffff" d="M 41.589844 32.71875 C 41.566406 33.03125 41.5 33.324219 41.140625 33.308594 C 40.796875 33.289062 40.707031 32.996094 40.703125 32.707031 C 40.703125 32.433594 40.6875 32.082031 41.050781 32.0625 C 41.46875 32.039062 41.519531 32.417969 41.589844 32.71875 Z M 41.589844 32.71875 " fill-opacity="1" fill-rule="nonzero"/><g fill="#ffffff" fill-opacity="1"><g transform="translate(48.65265, 38.865937)"><g><path d="M 1.421875 0 L 1.421875 -11.703125 L 8.4375 -11.703125 L 8.4375 -10.453125 L 2.828125 -10.453125 L 2.828125 -6.5 L 7.90625 -6.5 L 7.90625 -5.234375 L 2.828125 -5.234375 L 2.828125 0 Z M 1.421875 0 "/></g></g></g><g fill="#ffffff" fill-opacity="1"><g transform="translate(58.092926, 38.865937)"><g><path d="M 3.8125 0.203125 C 3.257812 0.203125 2.753906 0.0976562 2.296875 -0.109375 C 1.847656 -0.316406 1.488281 -0.625 1.21875 -1.03125 C 0.957031 -1.4375 0.828125 -1.921875 0.828125 -2.484375 C 0.828125 -2.992188 0.925781 -3.40625 1.125 -3.71875 C 1.320312 -4.03125 1.582031 -4.273438 1.90625 -4.453125 C 2.238281 -4.628906 2.609375 -4.765625 3.015625 -4.859375 C 3.421875 -4.953125 3.828125 -5.023438 4.234375 -5.078125 C 4.765625 -5.140625 5.195312 -5.1875 5.53125 -5.21875 C 5.863281 -5.257812 6.109375 -5.320312 6.265625 -5.40625 C 6.421875 -5.5 6.5 -5.65625 6.5 -5.875 L 6.5 -5.921875 C 6.5 -6.484375 6.34375 -6.921875 6.03125 -7.234375 C 5.726562 -7.546875 5.265625 -7.703125 4.640625 -7.703125 C 3.992188 -7.703125 3.488281 -7.5625 3.125 -7.28125 C 2.757812 -7 2.503906 -6.695312 2.359375 -6.375 L 1.078125 -6.828125 C 1.304688 -7.367188 1.609375 -7.785156 1.984375 -8.078125 C 2.367188 -8.378906 2.789062 -8.585938 3.25 -8.703125 C 3.707031 -8.828125 4.15625 -8.890625 4.59375 -8.890625 C 4.875 -8.890625 5.195312 -8.851562 5.5625 -8.78125 C 5.9375 -8.71875 6.296875 -8.582031 6.640625 -8.375 C 6.984375 -8.175781 7.269531 -7.867188 7.5 -7.453125 C 7.726562 -7.035156 7.84375 -6.476562 7.84375 -5.78125 L 7.84375 0 L 6.5 0 L 6.5 -1.1875 L 6.421875 -1.1875 C 6.328125 -1 6.171875 -0.796875 5.953125 -0.578125 C 5.742188 -0.359375 5.460938 -0.171875 5.109375 -0.015625 C 4.753906 0.128906 4.320312 0.203125 3.8125 0.203125 Z M 4.03125 -1 C 4.5625 -1 5.007812 -1.101562 5.375 -1.3125 C 5.738281 -1.53125 6.015625 -1.800781 6.203125 -2.125 C 6.398438 -2.457031 6.5 -2.804688 6.5 -3.171875 L 6.5 -4.40625 C 6.4375 -4.34375 6.304688 -4.28125 6.109375 -4.21875 C 5.921875 -4.164062 5.703125 -4.117188 5.453125 -4.078125 C 5.203125 -4.046875 4.957031 -4.015625 4.71875 -3.984375 C 4.488281 -3.953125 4.300781 -3.925781 4.15625 -3.90625 C 3.8125 -3.863281 3.484375 -3.789062 3.171875 -3.6875 C 2.867188 -3.582031 2.625 -3.429688 2.4375 -3.234375 C 2.257812 -3.035156 2.171875 -2.765625 2.171875 -2.421875 C 2.171875 -1.953125 2.34375 -1.597656 2.6875 -1.359375 C 3.039062 -1.117188 3.488281 -1 4.03125 -1 Z M 4.03125 -1 "/></g></g></g><g fill="#ffffff" fill-opacity="1"><g transform="translate(67.167476, 38.865937)"><g><path d="M 2.578125 -11.703125 L 2.578125 0 L 1.234375 0 L 1.234375 -11.703125 Z M 2.578125 -11.703125 "/></g></g></g><g fill="#ffffff" fill-opacity="1"><g transform="translate(70.98472, 38.865937)"><g><path d="M 3.8125 0.203125 C 3.257812 0.203125 2.753906 0.0976562 2.296875 -0.109375 C 1.847656 -0.316406 1.488281 -0.625 1.21875 -1.03125 C 0.957031 -1.4375 0.828125 -1.921875 0.828125 -2.484375 C 0.828125 -2.992188 0.925781 -3.40625 1.125 -3.71875 C 1.320312 -4.03125 1.582031 -4.273438 1.90625 -4.453125 C 2.238281 -4.628906 2.609375 -4.765625 3.015625 -4.859375 C 3.421875 -4.953125 3.828125 -5.023438 4.234375 -5.078125 C 4.765625 -5.140625 5.195312 -5.1875 5.53125 -5.21875 C 5.863281 -5.257812 6.109375 -5.320312 6.265625 -5.40625 C 6.421875 -5.5 6.5 -5.65625 6.5 -5.875 L 6.5 -5.921875 C 6.5 -6.484375 6.34375 -6.921875 6.03125 -7.234375 C 5.726562 -7.546875 5.265625 -7.703125 4.640625 -7.703125 C 3.992188 -7.703125 3.488281 -7.5625 3.125 -7.28125 C 2.757812 -7 2.503906 -6.695312 2.359375 -6.375 L 1.078125 -6.828125 C 1.304688 -7.367188 1.609375 -7.785156 1.984375 -8.078125 C 2.367188 -8.378906 2.789062 -8.585938 3.25 -8.703125 C 3.707031 -8.828125 4.15625 -8.890625 4.59375 -8.890625 C 4.875 -8.890625 5.195312 -8.851562 5.5625 -8.78125 C 5.9375 -8.71875 6.296875 -8.582031 6.640625 -8.375 C 6.984375 -8.175781 7.269531 -7.867188 7.5 -7.453125 C 7.726562 -7.035156 7.84375 -6.476562 7.84375 -5.78125 L 7.84375 0 L 6.5 0 L 6.5 -1.1875 L 6.421875 -1.1875 C 6.328125 -1 6.171875 -0.796875 5.953125 -0.578125 C 5.742188 -0.359375 5.460938 -0.171875 5.109375 -0.015625 C 4.753906 0.128906 4.320312 0.203125 3.8125 0.203125 Z M 4.03125 -1 C 4.5625 -1 5.007812 -1.101562 5.375 -1.3125 C 5.738281 -1.53125 6.015625 -1.800781 6.203125 -2.125 C 6.398438 -2.457031 6.5 -2.804688 6.5 -3.171875 L 6.5 -4.40625 C 6.4375 -4.34375 6.304688 -4.28125 6.109375 -4.21875 C 5.921875 -4.164062 5.703125 -4.117188 5.453125 -4.078125 C 5.203125 -4.046875 4.957031 -4.015625 4.71875 -3.984375 C 4.488281 -3.953125 4.300781 -3.925781 4.15625 -3.90625 C 3.8125 -3.863281 3.484375 -3.789062 3.171875 -3.6875 C 2.867188 -3.582031 2.625 -3.429688 2.4375 -3.234375 C 2.257812 -3.035156 2.171875 -2.765625 2.171875 -2.421875 C 2.171875 -1.953125 2.34375 -1.597656 2.6875 -1.359375 C 3.039062 -1.117188 3.488281 -1 4.03125 -1 Z M 4.03125 -1 "/></g></g></g><g fill="#ffffff" fill-opacity="1"><g transform="translate(80.059271, 38.865937)"><g><path d="M 1.234375 0 L 1.234375 -8.78125 L 2.53125 -8.78125 L 2.53125 -7.453125 L 2.625 -7.453125 C 2.78125 -7.890625 3.066406 -8.242188 3.484375 -8.515625 C 3.910156 -8.785156 4.390625 -8.921875 4.921875 -8.921875 C 5.160156 -8.921875 5.367188 -8.890625 5.546875 -8.828125 C 5.734375 -8.773438 5.894531 -8.695312 6.03125 -8.59375 L 5.578125 -7.453125 C 5.484375 -7.503906 5.367188 -7.539062 5.234375 -7.5625 C 5.109375 -7.59375 4.960938 -7.609375 4.796875 -7.609375 C 4.160156 -7.609375 3.628906 -7.410156 3.203125 -7.015625 C 2.785156 -6.628906 2.578125 -6.144531 2.578125 -5.5625 L 2.578125 0 Z M 1.234375 0 "/></g></g></g><g fill="#ffffff" fill-opacity="1"><g transform="translate(86.230879, 38.865937)"><g/></g></g><g fill="#ffffff" fill-opacity="1"><g transform="translate(90.756716, 38.865937)"><g><path d="M 2.578125 -5.28125 L 2.578125 0 L 1.234375 0 L 1.234375 -8.78125 L 2.53125 -8.78125 L 2.53125 -7.40625 L 2.65625 -7.40625 C 2.851562 -7.851562 3.160156 -8.210938 3.578125 -8.484375 C 4.003906 -8.753906 4.550781 -8.890625 5.21875 -8.890625 C 6.101562 -8.890625 6.816406 -8.617188 7.359375 -8.078125 C 7.910156 -7.535156 8.1875 -6.703125 8.1875 -5.578125 L 8.1875 0 L 6.828125 0 L 6.828125 -5.484375 C 6.828125 -6.171875 6.648438 -6.707031 6.296875 -7.09375 C 5.941406 -7.488281 5.453125 -7.6875 4.828125 -7.6875 C 4.179688 -7.6875 3.644531 -7.472656 3.21875 -7.046875 C 2.789062 -6.628906 2.578125 -6.039062 2.578125 -5.28125 Z M 2.578125 -5.28125 "/></g></g></g><g fill="#ffffff" fill-opacity="1"><g transform="translate(100.174135, 38.865937)"><g><path d="M 4.796875 0.1875 C 4.003906 0.1875 3.3125 0 2.71875 -0.375 C 2.125 -0.757812 1.660156 -1.289062 1.328125 -1.96875 C 0.992188 -2.644531 0.828125 -3.4375 0.828125 -4.34375 C 0.828125 -5.257812 0.992188 -6.054688 1.328125 -6.734375 C 1.660156 -7.421875 2.125 -7.953125 2.71875 -8.328125 C 3.3125 -8.703125 4.003906 -8.890625 4.796875 -8.890625 C 5.585938 -8.890625 6.28125 -8.703125 6.875 -8.328125 C 7.476562 -7.953125 7.945312 -7.421875 8.28125 -6.734375 C 8.613281 -6.054688 8.78125 -5.257812 8.78125 -4.34375 C 8.78125 -3.4375 8.613281 -2.644531 8.28125 -1.96875 C 7.945312 -1.289062 7.476562 -0.757812 6.875 -0.375 C 6.28125 0 5.585938 0.1875 4.796875 0.1875 Z M 4.796875 -1.03125 C 5.398438 -1.03125 5.894531 -1.179688 6.28125 -1.484375 C 6.675781 -1.796875 6.960938 -2.203125 7.140625 -2.703125 C 7.328125 -3.210938 7.421875 -3.757812 7.421875 -4.34375 C 7.421875 -4.925781 7.328125 -5.472656 7.140625 -5.984375 C 6.960938 -6.492188 6.675781 -6.90625 6.28125 -7.21875 C 5.894531 -7.53125 5.398438 -7.6875 4.796875 -7.6875 C 4.191406 -7.6875 3.695312 -7.53125 3.3125 -7.21875 C 2.925781 -6.90625 2.640625 -6.492188 2.453125 -5.984375 C 2.265625 -5.472656 2.171875 -4.925781 2.171875 -4.34375 C 2.171875 -3.757812 2.265625 -3.210938 2.453125 -2.703125 C 2.640625 -2.203125 2.925781 -1.796875 3.3125 -1.484375 C 3.695312 -1.179688 4.191406 -1.03125 4.796875 -1.03125 Z M 4.796875 -1.03125 "/></g></g></g><g fill="#ffffff" fill-opacity="1"><g transform="translate(109.774406, 38.865937)"><g/></g></g><g fill="#ffffff" fill-opacity="1"><g transform="translate(114.300243, 38.865937)"><g><path d="M 3.546875 0 L 0.34375 -11.703125 L 1.78125 -11.703125 L 4.234375 -2.171875 L 4.34375 -2.171875 L 6.828125 -11.703125 L 8.4375 -11.703125 L 10.921875 -2.171875 L 11.046875 -2.171875 L 13.484375 -11.703125 L 14.921875 -11.703125 L 11.734375 0 L 10.265625 0 L 7.6875 -9.328125 L 7.59375 -9.328125 L 5 0 Z M 3.546875 0 "/></g></g></g><g fill="#ffffff" fill-opacity="1"><g transform="translate(129.569259, 38.865937)"><g><path d="M 2.578125 -5.28125 L 2.578125 0 L 1.234375 0 L 1.234375 -11.703125 L 2.578125 -11.703125 L 2.578125 -7.40625 L 2.703125 -7.40625 C 2.898438 -7.863281 3.207031 -8.222656 3.625 -8.484375 C 4.039062 -8.753906 4.59375 -8.890625 5.28125 -8.890625 C 6.175781 -8.890625 6.898438 -8.617188 7.453125 -8.078125 C 8.003906 -7.535156 8.28125 -6.703125 8.28125 -5.578125 L 8.28125 0 L 6.921875 0 L 6.921875 -5.484375 C 6.921875 -6.179688 6.738281 -6.722656 6.375 -7.109375 C 6.019531 -7.492188 5.523438 -7.6875 4.890625 -7.6875 C 4.222656 -7.6875 3.671875 -7.472656 3.234375 -7.046875 C 2.796875 -6.628906 2.578125 -6.039062 2.578125 -5.28125 Z M 2.578125 -5.28125 "/></g></g></g><g fill="#ffffff" fill-opacity="1"><g transform="translate(139.078104, 38.865937)"><g><path d="M 3.8125 0.203125 C 3.257812 0.203125 2.753906 0.0976562 2.296875 -0.109375 C 1.847656 -0.316406 1.488281 -0.625 1.21875 -1.03125 C 0.957031 -1.4375 0.828125 -1.921875 0.828125 -2.484375 C 0.828125 -2.992188 0.925781 -3.40625 1.125 -3.71875 C 1.320312 -4.03125 1.582031 -4.273438 1.90625 -4.453125 C 2.238281 -4.628906 2.609375 -4.765625 3.015625 -4.859375 C 3.421875 -4.953125 3.828125 -5.023438 4.234375 -5.078125 C 4.765625 -5.140625 5.195312 -5.1875 5.53125 -5.21875 C 5.863281 -5.257812 6.109375 -5.320312 6.265625 -5.40625 C 6.421875 -5.5 6.5 -5.65625 6.5 -5.875 L 6.5 -5.921875 C 6.5 -6.484375 6.34375 -6.921875 6.03125 -7.234375 C 5.726562 -7.546875 5.265625 -7.703125 4.640625 -7.703125 C 3.992188 -7.703125 3.488281 -7.5625 3.125 -7.28125 C 2.757812 -7 2.503906 -6.695312 2.359375 -6.375 L 1.078125 -6.828125 C 1.304688 -7.367188 1.609375 -7.785156 1.984375 -8.078125 C 2.367188 -8.378906 2.789062 -8.585938 3.25 -8.703125 C 3.707031 -8.828125 4.15625 -8.890625 4.59375 -8.890625 C 4.875 -8.890625 5.195312 -8.851562 5.5625 -8.78125 C 5.9375 -8.71875 6.296875 -8.582031 6.640625 -8.375 C 6.984375 -8.175781 7.269531 -7.867188 7.5 -7.453125 C 7.726562 -7.035156 7.84375 -6.476562 7.84375 -5.78125 L 7.84375 0 L 6.5 0 L 6.5 -1.1875 L 6.421875 -1.1875 C 6.328125 -1 6.171875 -0.796875 5.953125 -0.578125 C 5.742188 -0.359375 5.460938 -0.171875 5.109375 -0.015625 C 4.753906 0.128906 4.320312 0.203125 3.8125 0.203125 Z M 4.03125 -1 C 4.5625 -1 5.007812 -1.101562 5.375 -1.3125 C 5.738281 -1.53125 6.015625 -1.800781 6.203125 -2.125 C 6.398438 -2.457031 6.5 -2.804688 6.5 -3.171875 L 6.5 -4.40625 C 6.4375 -4.34375 6.304688 -4.28125 6.109375 -4.21875 C 5.921875 -4.164062 5.703125 -4.117188 5.453125 -4.078125 C 5.203125 -4.046875 4.957031 -4.015625 4.71875 -3.984375 C 4.488281 -3.953125 4.300781 -3.925781 4.15625 -3.90625 C 3.8125 -3.863281 3.484375 -3.789062 3.171875 -3.6875 C 2.867188 -3.582031 2.625 -3.429688 2.4375 -3.234375 C 2.257812 -3.035156 2.171875 -2.765625 2.171875 -2.421875 C 2.171875 -1.953125 2.34375 -1.597656 2.6875 -1.359375 C 3.039062 -1.117188 3.488281 -1 4.03125 -1 Z M 4.03125 -1 "/></g></g></g><g fill="#ffffff" fill-opacity="1"><g transform="translate(148.152654, 38.865937)"><g><path d="M 5.046875 -8.78125 L 5.046875 -7.640625 L 3.171875 -7.640625 L 3.171875 -2.515625 C 3.171875 -2.128906 3.226562 -1.84375 3.34375 -1.65625 C 3.457031 -1.46875 3.601562 -1.34375 3.78125 -1.28125 C 3.957031 -1.21875 4.144531 -1.1875 4.34375 -1.1875 C 4.488281 -1.1875 4.609375 -1.191406 4.703125 -1.203125 C 4.804688 -1.222656 4.882812 -1.238281 4.9375 -1.25 L 5.21875 -0.046875 C 5.125 -0.015625 4.992188 0.015625 4.828125 0.046875 C 4.660156 0.0859375 4.453125 0.109375 4.203125 0.109375 C 3.828125 0.109375 3.457031 0.03125 3.09375 -0.125 C 2.726562 -0.289062 2.425781 -0.539062 2.1875 -0.875 C 1.945312 -1.21875 1.828125 -1.644531 1.828125 -2.15625 L 1.828125 -7.640625 L 0.5 -7.640625 L 0.5 -8.78125 L 1.828125 -8.78125 L 1.828125 -10.875 L 3.171875 -10.875 L 3.171875 -8.78125 Z M 5.046875 -8.78125 "/></g></g></g><g fill="#ffffff" fill-opacity="1"><g transform="translate(154.004251, 38.865937)"><g><path d="M 7.453125 -6.8125 L 6.234375 -6.46875 C 6.117188 -6.769531 5.921875 -7.054688 5.640625 -7.328125 C 5.367188 -7.597656 4.9375 -7.734375 4.34375 -7.734375 C 3.800781 -7.734375 3.351562 -7.609375 3 -7.359375 C 2.644531 -7.109375 2.46875 -6.796875 2.46875 -6.421875 C 2.46875 -6.085938 2.585938 -5.820312 2.828125 -5.625 C 3.078125 -5.4375 3.460938 -5.273438 3.984375 -5.140625 L 5.28125 -4.828125 C 6.832031 -4.441406 7.609375 -3.648438 7.609375 -2.453125 C 7.609375 -1.941406 7.460938 -1.488281 7.171875 -1.09375 C 6.890625 -0.695312 6.488281 -0.382812 5.96875 -0.15625 C 5.457031 0.0703125 4.863281 0.1875 4.1875 0.1875 C 3.289062 0.1875 2.546875 -0.00390625 1.953125 -0.390625 C 1.367188 -0.785156 1 -1.359375 0.84375 -2.109375 L 2.125 -2.421875 C 2.363281 -1.472656 3.039062 -1 4.15625 -1 C 4.789062 -1 5.289062 -1.132812 5.65625 -1.40625 C 6.03125 -1.675781 6.21875 -2 6.21875 -2.375 C 6.21875 -3 5.785156 -3.410156 4.921875 -3.609375 L 3.453125 -3.953125 C 2.648438 -4.140625 2.0625 -4.4375 1.6875 -4.84375 C 1.3125 -5.25 1.125 -5.753906 1.125 -6.359375 C 1.125 -6.847656 1.257812 -7.28125 1.53125 -7.65625 C 1.8125 -8.039062 2.195312 -8.34375 2.6875 -8.5625 C 3.175781 -8.78125 3.726562 -8.890625 4.34375 -8.890625 C 5.207031 -8.890625 5.890625 -8.695312 6.390625 -8.3125 C 6.890625 -7.9375 7.242188 -7.4375 7.453125 -6.8125 Z M 7.453125 -6.8125 "/></g></g></g><g fill="#ffffff" fill-opacity="1"><g transform="translate(162.415922, 38.865937)"><g><path d="M 3.8125 0.203125 C 3.257812 0.203125 2.753906 0.0976562 2.296875 -0.109375 C 1.847656 -0.316406 1.488281 -0.625 1.21875 -1.03125 C 0.957031 -1.4375 0.828125 -1.921875 0.828125 -2.484375 C 0.828125 -2.992188 0.925781 -3.40625 1.125 -3.71875 C 1.320312 -4.03125 1.582031 -4.273438 1.90625 -4.453125 C 2.238281 -4.628906 2.609375 -4.765625 3.015625 -4.859375 C 3.421875 -4.953125 3.828125 -5.023438 4.234375 -5.078125 C 4.765625 -5.140625 5.195312 -5.1875 5.53125 -5.21875 C 5.863281 -5.257812 6.109375 -5.320312 6.265625 -5.40625 C 6.421875 -5.5 6.5 -5.65625 6.5 -5.875 L 6.5 -5.921875 C 6.5 -6.484375 6.34375 -6.921875 6.03125 -7.234375 C 5.726562 -7.546875 5.265625 -7.703125 4.640625 -7.703125 C 3.992188 -7.703125 3.488281 -7.5625 3.125 -7.28125 C 2.757812 -7 2.503906 -6.695312 2.359375 -6.375 L 1.078125 -6.828125 C 1.304688 -7.367188 1.609375 -7.785156 1.984375 -8.078125 C 2.367188 -8.378906 2.789062 -8.585938 3.25 -8.703125 C 3.707031 -8.828125 4.15625 -8.890625 4.59375 -8.890625 C 4.875 -8.890625 5.195312 -8.851562 5.5625 -8.78125 C 5.9375 -8.71875 6.296875 -8.582031 6.640625 -8.375 C 6.984375 -8.175781 7.269531 -7.867188 7.5 -7.453125 C 7.726562 -7.035156 7.84375 -6.476562 7.84375 -5.78125 L 7.84375 0 L 6.5 0 L 6.5 -1.1875 L 6.421875 -1.1875 C 6.328125 -1 6.171875 -0.796875 5.953125 -0.578125 C 5.742188 -0.359375 5.460938 -0.171875 5.109375 -0.015625 C 4.753906 0.128906 4.320312 0.203125 3.8125 0.203125 Z M 4.03125 -1 C 4.5625 -1 5.007812 -1.101562 5.375 -1.3125 C 5.738281 -1.53125 6.015625 -1.800781 6.203125 -2.125 C 6.398438 -2.457031 6.5 -2.804688 6.5 -3.171875 L 6.5 -4.40625 C 6.4375 -4.34375 6.304688 -4.28125 6.109375 -4.21875 C 5.921875 -4.164062 5.703125 -4.117188 5.453125 -4.078125 C 5.203125 -4.046875 4.957031 -4.015625 4.71875 -3.984375 C 4.488281 -3.953125 4.300781 -3.925781 4.15625 -3.90625 C 3.8125 -3.863281 3.484375 -3.789062 3.171875 -3.6875 C 2.867188 -3.582031 2.625 -3.429688 2.4375 -3.234375 C 2.257812 -3.035156 2.171875 -2.765625 2.171875 -2.421875 C 2.171875 -1.953125 2.34375 -1.597656 2.6875 -1.359375 C 3.039062 -1.117188 3.488281 -1 4.03125 -1 Z M 4.03125 -1 "/></g></g></g><g fill="#ffffff" fill-opacity="1"><g transform="translate(171.490472, 38.865937)"><g><path d="M 1.234375 3.296875 L 1.234375 -8.78125 L 2.53125 -8.78125 L 2.53125 -7.390625 L 2.703125 -7.390625 C 2.796875 -7.535156 2.929688 -7.726562 3.109375 -7.96875 C 3.285156 -8.207031 3.539062 -8.421875 3.875 -8.609375 C 4.207031 -8.796875 4.660156 -8.890625 5.234375 -8.890625 C 5.972656 -8.890625 6.625 -8.703125 7.1875 -8.328125 C 7.75 -7.960938 8.1875 -7.441406 8.5 -6.765625 C 8.820312 -6.085938 8.984375 -5.285156 8.984375 -4.359375 C 8.984375 -3.429688 8.820312 -2.628906 8.5 -1.953125 C 8.1875 -1.273438 7.75 -0.75 7.1875 -0.375 C 6.632812 0 5.992188 0.1875 5.265625 0.1875 C 4.691406 0.1875 4.234375 0.09375 3.890625 -0.09375 C 3.554688 -0.289062 3.296875 -0.507812 3.109375 -0.75 C 2.929688 -0.988281 2.796875 -1.1875 2.703125 -1.34375 L 2.578125 -1.34375 L 2.578125 3.296875 Z M 2.5625 -4.390625 C 2.5625 -3.390625 2.773438 -2.578125 3.203125 -1.953125 C 3.640625 -1.335938 4.265625 -1.03125 5.078125 -1.03125 C 5.640625 -1.03125 6.109375 -1.175781 6.484375 -1.46875 C 6.867188 -1.769531 7.15625 -2.175781 7.34375 -2.6875 C 7.539062 -3.195312 7.640625 -3.765625 7.640625 -4.390625 C 7.640625 -5.003906 7.539062 -5.5625 7.34375 -6.0625 C 7.15625 -6.5625 6.875 -6.957031 6.5 -7.25 C 6.125 -7.539062 5.648438 -7.6875 5.078125 -7.6875 C 4.253906 -7.6875 3.628906 -7.378906 3.203125 -6.765625 C 2.773438 -6.160156 2.5625 -5.367188 2.5625 -4.390625 Z M 2.5625 -4.390625 "/></g></g></g><g fill="#ffffff" fill-opacity="1"><g transform="translate(181.296473, 38.865937)"><g><path d="M 1.234375 3.296875 L 1.234375 -8.78125 L 2.53125 -8.78125 L 2.53125 -7.390625 L 2.703125 -7.390625 C 2.796875 -7.535156 2.929688 -7.726562 3.109375 -7.96875 C 3.285156 -8.207031 3.539062 -8.421875 3.875 -8.609375 C 4.207031 -8.796875 4.660156 -8.890625 5.234375 -8.890625 C 5.972656 -8.890625 6.625 -8.703125 7.1875 -8.328125 C 7.75 -7.960938 8.1875 -7.441406 8.5 -6.765625 C 8.820312 -6.085938 8.984375 -5.285156 8.984375 -4.359375 C 8.984375 -3.429688 8.820312 -2.628906 8.5 -1.953125 C 8.1875 -1.273438 7.75 -0.75 7.1875 -0.375 C 6.632812 0 5.992188 0.1875 5.265625 0.1875 C 4.691406 0.1875 4.234375 0.09375 3.890625 -0.09375 C 3.554688 -0.289062 3.296875 -0.507812 3.109375 -0.75 C 2.929688 -0.988281 2.796875 -1.1875 2.703125 -1.34375 L 2.578125 -1.34375 L 2.578125 3.296875 Z M 2.5625 -4.390625 C 2.5625 -3.390625 2.773438 -2.578125 3.203125 -1.953125 C 3.640625 -1.335938 4.265625 -1.03125 5.078125 -1.03125 C 5.640625 -1.03125 6.109375 -1.175781 6.484375 -1.46875 C 6.867188 -1.769531 7.15625 -2.175781 7.34375 -2.6875 C 7.539062 -3.195312 7.640625 -3.765625 7.640625 -4.390625 C 7.640625 -5.003906 7.539062 -5.5625 7.34375 -6.0625 C 7.15625 -6.5625 6.875 -6.957031 6.5 -7.25 C 6.125 -7.539062 5.648438 -7.6875 5.078125 -7.6875 C 4.253906 -7.6875 3.628906 -7.378906 3.203125 -6.765625 C 2.773438 -6.160156 2.5625 -5.367188 2.5625 -4.390625 Z M 2.5625 -4.390625 "/></g></g></g></svg>