<svg width="739" height="201" viewBox="0 0 739 201" fill="none" xmlns="http://www.w3.org/2000/svg">
<rect x="191" y="18" width="548" height="73" rx="19" fill="#8D0C00"/>
<path d="M206.114 75V28.4545H235.295V34.5H213.136V48.6818H233.773V54.7045H213.136V68.9545H235.568V75H206.114ZM250.926 54.2727V75H244.131V40.0909H250.653V45.7727H251.085C251.888 43.9242 253.146 42.4394 254.858 41.3182C256.585 40.197 258.759 39.6364 261.381 39.6364C263.759 39.6364 265.843 40.1364 267.631 41.1364C269.419 42.1212 270.805 43.5909 271.79 45.5455C272.775 47.5 273.267 49.9167 273.267 52.7955V75H266.472V53.6136C266.472 51.0833 265.813 49.1061 264.494 47.6818C263.176 46.2424 261.366 45.5227 259.062 45.5227C257.487 45.5227 256.085 45.8636 254.858 46.5455C253.646 47.2273 252.684 48.2273 251.972 49.5455C251.275 50.8485 250.926 52.4242 250.926 54.2727ZM298.676 40.0909V45.5455H279.608V40.0909H298.676ZM284.722 31.7273H291.517V64.75C291.517 66.0682 291.714 67.0606 292.108 67.7273C292.502 68.3788 293.009 68.8258 293.631 69.0682C294.267 69.2955 294.956 69.4091 295.699 69.4091C296.244 69.4091 296.722 69.3712 297.131 69.2955C297.54 69.2197 297.858 69.1591 298.085 69.1136L299.312 74.7273C298.919 74.8788 298.358 75.0303 297.631 75.1818C296.903 75.3485 295.994 75.4394 294.903 75.4545C293.116 75.4848 291.449 75.1667 289.903 74.5C288.358 73.8333 287.108 72.803 286.153 71.4091C285.199 70.0152 284.722 68.2652 284.722 66.1591V31.7273ZM306.193 75V40.0909H312.761V45.6364H313.125C313.761 43.7576 314.883 42.2803 316.489 41.2045C318.11 40.1136 319.943 39.5682 321.989 39.5682C322.413 39.5682 322.913 39.5833 323.489 39.6136C324.08 39.6439 324.542 39.6818 324.875 39.7273V46.2273C324.602 46.1515 324.117 46.0682 323.42 45.9773C322.723 45.8712 322.027 45.8182 321.33 45.8182C319.723 45.8182 318.292 46.1591 317.034 46.8409C315.792 47.5076 314.807 48.4394 314.08 49.6364C313.352 50.8182 312.989 52.1667 312.989 53.6818V75H306.193ZM344.551 75.7045C341.112 75.7045 338.15 74.9697 335.665 73.5C333.195 72.0152 331.286 69.9318 329.938 67.25C328.604 64.553 327.938 61.3939 327.938 57.7727C327.938 54.197 328.604 51.0455 329.938 48.3182C331.286 45.5909 333.165 43.4621 335.574 41.9318C337.998 40.4015 340.831 39.6364 344.074 39.6364C346.044 39.6364 347.953 39.9621 349.801 40.6136C351.65 41.2652 353.309 42.2879 354.778 43.6818C356.248 45.0758 357.407 46.8864 358.256 49.1136C359.104 51.3258 359.528 54.0152 359.528 57.1818V59.5909H331.778V54.5H352.869C352.869 52.7121 352.506 51.1288 351.778 49.75C351.051 48.3561 350.028 47.2576 348.71 46.4545C347.407 45.6515 345.877 45.25 344.119 45.25C342.21 45.25 340.544 45.7197 339.119 46.6591C337.71 47.5833 336.619 48.7955 335.847 50.2955C335.089 51.7803 334.71 53.3939 334.71 55.1364V59.1136C334.71 61.447 335.119 63.4318 335.938 65.0682C336.771 66.7045 337.93 67.9545 339.415 68.8182C340.9 69.6667 342.634 70.0909 344.619 70.0909C345.907 70.0909 347.081 69.9091 348.142 69.5455C349.203 69.1667 350.119 68.6061 350.892 67.8636C351.665 67.1212 352.256 66.2045 352.665 65.1136L359.097 66.2727C358.581 68.1667 357.657 69.8258 356.324 71.25C355.006 72.6591 353.347 73.7576 351.347 74.5455C349.362 75.3182 347.097 75.7045 344.551 75.7045ZM399.051 75.7045C395.612 75.7045 392.65 74.9697 390.165 73.5C387.695 72.0152 385.786 69.9318 384.438 67.25C383.104 64.553 382.438 61.3939 382.438 57.7727C382.438 54.197 383.104 51.0455 384.438 48.3182C385.786 45.5909 387.665 43.4621 390.074 41.9318C392.498 40.4015 395.331 39.6364 398.574 39.6364C400.544 39.6364 402.453 39.9621 404.301 40.6136C406.15 41.2652 407.809 42.2879 409.278 43.6818C410.748 45.0758 411.907 46.8864 412.756 49.1136C413.604 51.3258 414.028 54.0152 414.028 57.1818V59.5909H386.278V54.5H407.369C407.369 52.7121 407.006 51.1288 406.278 49.75C405.551 48.3561 404.528 47.2576 403.21 46.4545C401.907 45.6515 400.377 45.25 398.619 45.25C396.71 45.25 395.044 45.7197 393.619 46.6591C392.21 47.5833 391.119 48.7955 390.347 50.2955C389.589 51.7803 389.21 53.3939 389.21 55.1364V59.1136C389.21 61.447 389.619 63.4318 390.438 65.0682C391.271 66.7045 392.43 67.9545 393.915 68.8182C395.4 69.6667 397.134 70.0909 399.119 70.0909C400.407 70.0909 401.581 69.9091 402.642 69.5455C403.703 69.1667 404.619 68.6061 405.392 67.8636C406.165 67.1212 406.756 66.2045 407.165 65.1136L413.597 66.2727C413.081 68.1667 412.157 69.8258 410.824 71.25C409.506 72.6591 407.847 73.7576 405.847 74.5455C403.862 75.3182 401.597 75.7045 399.051 75.7045ZM421.568 75V40.0909H428.091V45.7727H428.523C429.25 43.8485 430.439 42.3485 432.091 41.2727C433.742 40.1818 435.72 39.6364 438.023 39.6364C440.356 39.6364 442.311 40.1818 443.886 41.2727C445.477 42.3636 446.652 43.8636 447.409 45.7727H447.773C448.606 43.9091 449.932 42.4242 451.75 41.3182C453.568 40.197 455.735 39.6364 458.25 39.6364C461.417 39.6364 464 40.6288 466 42.6136C468.015 44.5985 469.023 47.5909 469.023 51.5909V75H462.227V52.2273C462.227 49.8636 461.583 48.1515 460.295 47.0909C459.008 46.0303 457.47 45.5 455.682 45.5C453.47 45.5 451.75 46.1818 450.523 47.5455C449.295 48.8939 448.682 50.6288 448.682 52.75V75H441.909V51.7955C441.909 49.9015 441.318 48.3788 440.136 47.2273C438.955 46.0758 437.417 45.5 435.523 45.5C434.235 45.5 433.045 45.8409 431.955 46.5227C430.879 47.1894 430.008 48.1212 429.341 49.3182C428.689 50.5152 428.364 51.9015 428.364 53.4773V75H421.568ZM509.773 75.7045C506.394 75.7045 503.485 74.9394 501.045 73.4091C498.621 71.8636 496.758 69.7348 495.455 67.0227C494.152 64.3106 493.5 61.2045 493.5 57.7045C493.5 54.1591 494.167 51.0303 495.5 48.3182C496.833 45.5909 498.712 43.4621 501.136 41.9318C503.561 40.4015 506.417 39.6364 509.705 39.6364C512.356 39.6364 514.72 40.1288 516.795 41.1136C518.871 42.0833 520.545 43.447 521.818 45.2045C523.106 46.9621 523.871 49.0152 524.114 51.3636H517.5C517.136 49.7273 516.303 48.3182 515 47.1364C513.712 45.9545 511.985 45.3636 509.818 45.3636C507.924 45.3636 506.265 45.8636 504.841 46.8636C503.432 47.8485 502.333 49.2576 501.545 51.0909C500.758 52.9091 500.364 55.0606 500.364 57.5455C500.364 60.0909 500.75 62.2879 501.523 64.1364C502.295 65.9848 503.386 67.4167 504.795 68.4318C506.22 69.447 507.894 69.9545 509.818 69.9545C511.106 69.9545 512.273 69.7197 513.318 69.25C514.379 68.7652 515.265 68.0758 515.977 67.1818C516.705 66.2879 517.212 65.2121 517.5 63.9545H524.114C523.871 66.2121 523.136 68.2273 521.909 70C520.682 71.7727 519.038 73.1667 516.977 74.1818C514.932 75.197 512.53 75.7045 509.773 75.7045ZM546.085 75.7045C542.813 75.7045 539.956 74.9545 537.517 73.4545C535.078 71.9545 533.184 69.8561 531.835 67.1591C530.487 64.4621 529.812 61.3106 529.812 57.7045C529.812 54.0833 530.487 50.9167 531.835 48.2045C533.184 45.4924 535.078 43.3864 537.517 41.8864C539.956 40.3864 542.813 39.6364 546.085 39.6364C549.358 39.6364 552.214 40.3864 554.653 41.8864C557.093 43.3864 558.987 45.4924 560.335 48.2045C561.684 50.9167 562.358 54.0833 562.358 57.7045C562.358 61.3106 561.684 64.4621 560.335 67.1591C558.987 69.8561 557.093 71.9545 554.653 73.4545C552.214 74.9545 549.358 75.7045 546.085 75.7045ZM546.108 70C548.229 70 549.987 69.4394 551.381 68.3182C552.775 67.197 553.805 65.7045 554.472 63.8409C555.153 61.9773 555.494 59.9242 555.494 57.6818C555.494 55.4545 555.153 53.4091 554.472 51.5455C553.805 49.6667 552.775 48.1591 551.381 47.0227C549.987 45.8864 548.229 45.3182 546.108 45.3182C543.972 45.3182 542.199 45.8864 540.79 47.0227C539.396 48.1591 538.358 49.6667 537.676 51.5455C537.009 53.4091 536.676 55.4545 536.676 57.6818C536.676 59.9242 537.009 61.9773 537.676 63.8409C538.358 65.7045 539.396 67.197 540.79 68.3182C542.199 69.4394 543.972 70 546.108 70ZM576.739 54.2727V75H569.943V40.0909H576.466V45.7727H576.898C577.701 43.9242 578.958 42.4394 580.67 41.3182C582.398 40.197 584.572 39.6364 587.193 39.6364C589.572 39.6364 591.655 40.1364 593.443 41.1364C595.231 42.1212 596.617 43.5909 597.602 45.5455C598.587 47.5 599.08 49.9167 599.08 52.7955V75H592.284V53.6136C592.284 51.0833 591.625 49.1061 590.307 47.6818C588.989 46.2424 587.178 45.5227 584.875 45.5227C583.299 45.5227 581.898 45.8636 580.67 46.5455C579.458 47.2273 578.496 48.2273 577.784 49.5455C577.087 50.8485 576.739 52.4242 576.739 54.2727ZM624.489 40.0909V45.5455H605.42V40.0909H624.489ZM610.534 31.7273H617.33V64.75C617.33 66.0682 617.527 67.0606 617.92 67.7273C618.314 68.3788 618.822 68.8258 619.443 69.0682C620.08 69.2955 620.769 69.4091 621.511 69.4091C622.057 69.4091 622.534 69.3712 622.943 69.2955C623.352 69.2197 623.67 69.1591 623.898 69.1136L625.125 74.7273C624.731 74.8788 624.17 75.0303 623.443 75.1818C622.716 75.3485 621.807 75.4394 620.716 75.4545C618.928 75.4848 617.261 75.1667 615.716 74.5C614.17 73.8333 612.92 72.803 611.966 71.4091C611.011 70.0152 610.534 68.2652 610.534 66.1591V31.7273ZM642.165 75.7727C639.953 75.7727 637.953 75.3636 636.165 74.5455C634.377 73.7121 632.96 72.5076 631.915 70.9318C630.884 69.3561 630.369 67.4242 630.369 65.1364C630.369 63.1667 630.748 61.5455 631.506 60.2727C632.263 59 633.286 57.9924 634.574 57.25C635.862 56.5076 637.301 55.947 638.892 55.5682C640.483 55.1894 642.104 54.9015 643.756 54.7045C645.847 54.4621 647.544 54.2652 648.847 54.1136C650.15 53.947 651.097 53.6818 651.688 53.3182C652.278 52.9545 652.574 52.3636 652.574 51.5455V51.3864C652.574 49.4015 652.013 47.8636 650.892 46.7727C649.786 45.6818 648.134 45.1364 645.938 45.1364C643.65 45.1364 641.847 45.6439 640.528 46.6591C639.225 47.6591 638.324 48.7727 637.824 50L631.438 48.5455C632.195 46.4242 633.301 44.7121 634.756 43.4091C636.225 42.0909 637.915 41.1364 639.824 40.5455C641.733 39.9394 643.741 39.6364 645.847 39.6364C647.241 39.6364 648.718 39.803 650.278 40.1364C651.854 40.4545 653.324 41.0455 654.688 41.9091C656.066 42.7727 657.195 44.0076 658.074 45.6136C658.953 47.2045 659.392 49.2727 659.392 51.8182V75H652.756V70.2273H652.483C652.044 71.1061 651.384 71.9697 650.506 72.8182C649.627 73.6667 648.498 74.3712 647.119 74.9318C645.741 75.4924 644.089 75.7727 642.165 75.7727ZM643.642 70.3182C645.521 70.3182 647.127 69.947 648.46 69.2045C649.809 68.4621 650.831 67.4924 651.528 66.2955C652.241 65.0833 652.597 63.7879 652.597 62.4091V57.9091C652.354 58.1515 651.884 58.3788 651.188 58.5909C650.506 58.7879 649.725 58.9621 648.847 59.1136C647.968 59.25 647.112 59.3788 646.278 59.5C645.445 59.6061 644.748 59.697 644.188 59.7727C642.869 59.9394 641.665 60.2197 640.574 60.6136C639.498 61.0076 638.634 61.5758 637.983 62.3182C637.347 63.0455 637.028 64.0152 637.028 65.2273C637.028 66.9091 637.65 68.1818 638.892 69.0455C640.134 69.8939 641.718 70.3182 643.642 70.3182ZM684.739 40.0909V45.5455H665.67V40.0909H684.739ZM670.784 31.7273H677.58V64.75C677.58 66.0682 677.777 67.0606 678.17 67.7273C678.564 68.3788 679.072 68.8258 679.693 69.0682C680.33 69.2955 681.019 69.4091 681.761 69.4091C682.307 69.4091 682.784 69.3712 683.193 69.2955C683.602 69.2197 683.92 69.1591 684.148 69.1136L685.375 74.7273C684.981 74.8788 684.42 75.0303 683.693 75.1818C682.966 75.3485 682.057 75.4394 680.966 75.4545C679.178 75.4848 677.511 75.1667 675.966 74.5C674.42 73.8333 673.17 72.803 672.216 71.4091C671.261 70.0152 670.784 68.2652 670.784 66.1591V31.7273ZM706.585 75.7045C703.313 75.7045 700.456 74.9545 698.017 73.4545C695.578 71.9545 693.684 69.8561 692.335 67.1591C690.987 64.4621 690.312 61.3106 690.312 57.7045C690.312 54.0833 690.987 50.9167 692.335 48.2045C693.684 45.4924 695.578 43.3864 698.017 41.8864C700.456 40.3864 703.313 39.6364 706.585 39.6364C709.858 39.6364 712.714 40.3864 715.153 41.8864C717.593 43.3864 719.487 45.4924 720.835 48.2045C722.184 50.9167 722.858 54.0833 722.858 57.7045C722.858 61.3106 722.184 64.4621 720.835 67.1591C719.487 69.8561 717.593 71.9545 715.153 73.4545C712.714 74.9545 709.858 75.7045 706.585 75.7045ZM706.608 70C708.729 70 710.487 69.4394 711.881 68.3182C713.275 67.197 714.305 65.7045 714.972 63.8409C715.653 61.9773 715.994 59.9242 715.994 57.6818C715.994 55.4545 715.653 53.4091 714.972 51.5455C714.305 49.6667 713.275 48.1591 711.881 47.0227C710.487 45.8864 708.729 45.3182 706.608 45.3182C704.472 45.3182 702.699 45.8864 701.29 47.0227C699.896 48.1591 698.858 49.6667 698.176 51.5455C697.509 53.4091 697.176 55.4545 697.176 57.6818C697.176 59.9242 697.509 61.9773 698.176 63.8409C698.858 65.7045 699.896 67.197 701.29 68.3182C702.699 69.4394 704.472 70 706.608 70Z" fill="white"/>
<path d="M199.545 128.727C199.545 123.03 200.295 117.788 201.795 113C203.295 108.212 205.485 103.795 208.364 99.75H214.591C213.47 101.25 212.424 103.091 211.455 105.273C210.485 107.455 209.636 109.848 208.909 112.455C208.182 115.045 207.614 117.735 207.205 120.523C206.795 123.295 206.591 126.03 206.591 128.727C206.591 132.333 206.947 135.985 207.659 139.682C208.371 143.379 209.333 146.811 210.545 149.977C211.758 153.144 213.106 155.727 214.591 157.727H208.364C205.485 153.682 203.295 149.265 201.795 144.477C200.295 139.689 199.545 134.439 199.545 128.727ZM237.392 152.636C234.134 152.636 231.256 152.076 228.756 150.955C226.271 149.833 224.324 148.288 222.915 146.318C221.506 144.348 220.809 142.106 220.824 139.591C220.809 137.621 221.21 135.811 222.028 134.159C222.862 132.492 223.991 131.106 225.415 130C226.839 128.879 228.43 128.167 230.188 127.864V127.591C227.869 127.03 226.013 125.788 224.619 123.864C223.225 121.939 222.536 119.727 222.551 117.227C222.536 114.848 223.165 112.727 224.438 110.864C225.725 108.985 227.491 107.508 229.733 106.432C231.975 105.356 234.528 104.818 237.392 104.818C240.225 104.818 242.756 105.364 244.983 106.455C247.225 107.53 248.991 109.008 250.278 110.886C251.566 112.75 252.218 114.864 252.233 117.227C252.218 119.727 251.506 121.939 250.097 123.864C248.688 125.788 246.854 127.03 244.597 127.591V127.864C246.339 128.167 247.907 128.879 249.301 130C250.71 131.106 251.831 132.492 252.665 134.159C253.513 135.811 253.945 137.621 253.96 139.591C253.945 142.106 253.233 144.348 251.824 146.318C250.415 148.288 248.46 149.833 245.96 150.955C243.475 152.076 240.619 152.636 237.392 152.636ZM237.392 146.886C239.316 146.886 240.983 146.568 242.392 145.932C243.801 145.28 244.892 144.379 245.665 143.227C246.438 142.061 246.831 140.697 246.847 139.136C246.831 137.515 246.407 136.083 245.574 134.841C244.756 133.598 243.642 132.621 242.233 131.909C240.824 131.197 239.21 130.841 237.392 130.841C235.559 130.841 233.93 131.197 232.506 131.909C231.081 132.621 229.96 133.598 229.142 134.841C228.324 136.083 227.922 137.515 227.938 139.136C227.922 140.697 228.294 142.061 229.051 143.227C229.824 144.379 230.922 145.28 232.347 145.932C233.771 146.568 235.453 146.886 237.392 146.886ZM237.392 125.227C238.938 125.227 240.309 124.917 241.506 124.295C242.703 123.674 243.642 122.811 244.324 121.705C245.021 120.598 245.377 119.303 245.392 117.818C245.377 116.364 245.028 115.091 244.347 114C243.68 112.909 242.748 112.068 241.551 111.477C240.354 110.871 238.968 110.568 237.392 110.568C235.786 110.568 234.377 110.871 233.165 111.477C231.968 112.068 231.036 112.909 230.369 114C229.703 115.091 229.377 116.364 229.392 117.818C229.377 119.303 229.71 120.598 230.392 121.705C231.074 122.811 232.013 123.674 233.21 124.295C234.422 124.917 235.816 125.227 237.392 125.227ZM278.307 152.636C275.186 152.636 272.398 152.098 269.943 151.023C267.504 149.947 265.572 148.455 264.148 146.545C262.739 144.621 261.981 142.394 261.875 139.864H269.011C269.102 141.242 269.564 142.439 270.398 143.455C271.246 144.455 272.352 145.227 273.716 145.773C275.08 146.318 276.595 146.591 278.261 146.591C280.095 146.591 281.716 146.273 283.125 145.636C284.549 145 285.663 144.114 286.466 142.977C287.269 141.826 287.67 140.5 287.67 139C287.67 137.439 287.269 136.068 286.466 134.886C285.678 133.689 284.519 132.75 282.989 132.068C281.473 131.386 279.64 131.045 277.489 131.045H273.557V125.318H277.489C279.216 125.318 280.731 125.008 282.034 124.386C283.352 123.765 284.383 122.902 285.125 121.795C285.867 120.674 286.239 119.364 286.239 117.864C286.239 116.424 285.913 115.174 285.261 114.114C284.625 113.038 283.716 112.197 282.534 111.591C281.367 110.985 279.989 110.682 278.398 110.682C276.883 110.682 275.466 110.962 274.148 111.523C272.845 112.068 271.784 112.856 270.966 113.886C270.148 114.902 269.708 116.121 269.648 117.545H262.852C262.928 115.03 263.67 112.818 265.08 110.909C266.504 109 268.383 107.508 270.716 106.432C273.049 105.356 275.64 104.818 278.489 104.818C281.473 104.818 284.049 105.402 286.216 106.568C288.398 107.72 290.08 109.258 291.261 111.182C292.458 113.106 293.049 115.212 293.034 117.5C293.049 120.106 292.322 122.318 290.852 124.136C289.398 125.955 287.458 127.174 285.034 127.795V128.159C288.125 128.629 290.519 129.856 292.216 131.841C293.928 133.826 294.777 136.288 294.761 139.227C294.777 141.788 294.064 144.083 292.625 146.114C291.201 148.144 289.254 149.742 286.784 150.909C284.314 152.061 281.489 152.636 278.307 152.636ZM316.511 128.727C316.511 134.439 315.761 139.689 314.261 144.477C312.761 149.265 310.572 153.682 307.693 157.727H301.466C302.587 156.227 303.633 154.386 304.602 152.205C305.572 150.023 306.42 147.636 307.148 145.045C307.875 142.439 308.443 139.742 308.852 136.955C309.261 134.167 309.466 131.424 309.466 128.727C309.466 125.136 309.11 121.492 308.398 117.795C307.686 114.098 306.723 110.667 305.511 107.5C304.299 104.333 302.951 101.75 301.466 99.75H307.693C310.572 103.795 312.761 108.212 314.261 113C315.761 117.788 316.511 123.03 316.511 128.727ZM359.955 104.818C362.03 104.833 364.076 105.212 366.091 105.955C368.106 106.697 369.924 107.909 371.545 109.591C373.182 111.273 374.485 113.545 375.455 116.409C376.439 119.258 376.939 122.803 376.955 127.045C376.955 131.121 376.545 134.75 375.727 137.932C374.909 141.098 373.735 143.773 372.205 145.955C370.689 148.136 368.848 149.795 366.682 150.932C364.515 152.068 362.076 152.636 359.364 152.636C356.591 152.636 354.129 152.091 351.977 151C349.826 149.909 348.076 148.402 346.727 146.477C345.379 144.538 344.538 142.311 344.205 139.795H351.136C351.591 141.795 352.515 143.417 353.909 144.659C355.318 145.886 357.136 146.5 359.364 146.5C362.773 146.5 365.432 145.015 367.341 142.045C369.25 139.061 370.212 134.894 370.227 129.545H369.864C369.076 130.848 368.091 131.97 366.909 132.909C365.742 133.848 364.432 134.576 362.977 135.091C361.523 135.606 359.97 135.864 358.318 135.864C355.636 135.864 353.197 135.205 351 133.886C348.803 132.568 347.053 130.758 345.75 128.455C344.447 126.152 343.795 123.523 343.795 120.568C343.795 117.629 344.462 114.962 345.795 112.568C347.144 110.174 349.023 108.28 351.432 106.886C353.856 105.477 356.697 104.788 359.955 104.818ZM359.977 110.727C358.205 110.727 356.606 111.167 355.182 112.045C353.773 112.909 352.659 114.083 351.841 115.568C351.023 117.038 350.614 118.674 350.614 120.477C350.614 122.28 351.008 123.917 351.795 125.386C352.598 126.841 353.689 128 355.068 128.864C356.462 129.712 358.053 130.136 359.841 130.136C361.174 130.136 362.417 129.879 363.568 129.364C364.72 128.848 365.727 128.136 366.591 127.227C367.455 126.303 368.129 125.258 368.614 124.091C369.098 122.924 369.341 121.697 369.341 120.409C369.341 118.697 368.932 117.106 368.114 115.636C367.311 114.167 366.205 112.985 364.795 112.091C363.386 111.182 361.78 110.727 359.977 110.727ZM400.642 104.818C402.718 104.833 404.763 105.212 406.778 105.955C408.794 106.697 410.612 107.909 412.233 109.591C413.869 111.273 415.172 113.545 416.142 116.409C417.127 119.258 417.627 122.803 417.642 127.045C417.642 131.121 417.233 134.75 416.415 137.932C415.597 141.098 414.422 143.773 412.892 145.955C411.377 148.136 409.536 149.795 407.369 150.932C405.203 152.068 402.763 152.636 400.051 152.636C397.278 152.636 394.816 152.091 392.665 151C390.513 149.909 388.763 148.402 387.415 146.477C386.066 144.538 385.225 142.311 384.892 139.795H391.824C392.278 141.795 393.203 143.417 394.597 144.659C396.006 145.886 397.824 146.5 400.051 146.5C403.46 146.5 406.119 145.015 408.028 142.045C409.938 139.061 410.9 134.894 410.915 129.545H410.551C409.763 130.848 408.778 131.97 407.597 132.909C406.43 133.848 405.119 134.576 403.665 135.091C402.21 135.606 400.657 135.864 399.006 135.864C396.324 135.864 393.884 135.205 391.688 133.886C389.491 132.568 387.741 130.758 386.438 128.455C385.134 126.152 384.483 123.523 384.483 120.568C384.483 117.629 385.15 114.962 386.483 112.568C387.831 110.174 389.71 108.28 392.119 106.886C394.544 105.477 397.384 104.788 400.642 104.818ZM400.665 110.727C398.892 110.727 397.294 111.167 395.869 112.045C394.46 112.909 393.347 114.083 392.528 115.568C391.71 117.038 391.301 118.674 391.301 120.477C391.301 122.28 391.695 123.917 392.483 125.386C393.286 126.841 394.377 128 395.756 128.864C397.15 129.712 398.741 130.136 400.528 130.136C401.862 130.136 403.104 129.879 404.256 129.364C405.407 128.848 406.415 128.136 407.278 127.227C408.142 126.303 408.816 125.258 409.301 124.091C409.786 122.924 410.028 121.697 410.028 120.409C410.028 118.697 409.619 117.106 408.801 115.636C407.998 114.167 406.892 112.985 405.483 112.091C404.074 111.182 402.468 110.727 400.665 110.727ZM441.33 104.818C443.405 104.833 445.451 105.212 447.466 105.955C449.481 106.697 451.299 107.909 452.92 109.591C454.557 111.273 455.86 113.545 456.83 116.409C457.814 119.258 458.314 122.803 458.33 127.045C458.33 131.121 457.92 134.75 457.102 137.932C456.284 141.098 455.11 143.773 453.58 145.955C452.064 148.136 450.223 149.795 448.057 150.932C445.89 152.068 443.451 152.636 440.739 152.636C437.966 152.636 435.504 152.091 433.352 151C431.201 149.909 429.451 148.402 428.102 146.477C426.754 144.538 425.913 142.311 425.58 139.795H432.511C432.966 141.795 433.89 143.417 435.284 144.659C436.693 145.886 438.511 146.5 440.739 146.5C444.148 146.5 446.807 145.015 448.716 142.045C450.625 139.061 451.587 134.894 451.602 129.545H451.239C450.451 130.848 449.466 131.97 448.284 132.909C447.117 133.848 445.807 134.576 444.352 135.091C442.898 135.606 441.345 135.864 439.693 135.864C437.011 135.864 434.572 135.205 432.375 133.886C430.178 132.568 428.428 130.758 427.125 128.455C425.822 126.152 425.17 123.523 425.17 120.568C425.17 117.629 425.837 114.962 427.17 112.568C428.519 110.174 430.398 108.28 432.807 106.886C435.231 105.477 438.072 104.788 441.33 104.818ZM441.352 110.727C439.58 110.727 437.981 111.167 436.557 112.045C435.148 112.909 434.034 114.083 433.216 115.568C432.398 117.038 431.989 118.674 431.989 120.477C431.989 122.28 432.383 123.917 433.17 125.386C433.973 126.841 435.064 128 436.443 128.864C437.837 129.712 439.428 130.136 441.216 130.136C442.549 130.136 443.792 129.879 444.943 129.364C446.095 128.848 447.102 128.136 447.966 127.227C448.83 126.303 449.504 125.258 449.989 124.091C450.473 122.924 450.716 121.697 450.716 120.409C450.716 118.697 450.307 117.106 449.489 115.636C448.686 114.167 447.58 112.985 446.17 112.091C444.761 111.182 443.155 110.727 441.352 110.727ZM466.54 152V146.909L482.29 130.591C483.972 128.818 485.358 127.265 486.449 125.932C487.555 124.583 488.381 123.303 488.926 122.091C489.472 120.879 489.744 119.591 489.744 118.227C489.744 116.682 489.381 115.348 488.653 114.227C487.926 113.091 486.934 112.22 485.676 111.614C484.419 110.992 483.002 110.682 481.426 110.682C479.759 110.682 478.305 111.023 477.062 111.705C475.82 112.386 474.866 113.348 474.199 114.591C473.532 115.833 473.199 117.288 473.199 118.955H466.494C466.494 116.121 467.146 113.644 468.449 111.523C469.752 109.402 471.54 107.758 473.812 106.591C476.085 105.409 478.669 104.818 481.562 104.818C484.487 104.818 487.063 105.402 489.29 106.568C491.532 107.72 493.282 109.295 494.54 111.295C495.797 113.28 496.426 115.523 496.426 118.023C496.426 119.75 496.1 121.439 495.449 123.091C494.813 124.742 493.699 126.583 492.108 128.614C490.517 130.629 488.305 133.076 485.472 135.955L476.222 145.636V145.977H497.176V152H466.54ZM522.04 152.636C519.964 152.606 517.919 152.227 515.903 151.5C513.903 150.773 512.085 149.561 510.449 147.864C508.813 146.167 507.502 143.886 506.517 141.023C505.547 138.159 505.062 134.583 505.062 130.295C505.062 126.235 505.464 122.629 506.267 119.477C507.085 116.326 508.259 113.667 509.79 111.5C511.32 109.318 513.169 107.659 515.335 106.523C517.502 105.386 519.934 104.818 522.631 104.818C525.403 104.818 527.866 105.364 530.017 106.455C532.169 107.545 533.911 109.053 535.244 110.977C536.593 112.902 537.449 115.091 537.812 117.545H530.881C530.411 115.606 529.479 114.023 528.085 112.795C526.691 111.568 524.873 110.955 522.631 110.955C519.222 110.955 516.563 112.439 514.653 115.409C512.759 118.379 511.805 122.508 511.79 127.795H512.131C512.934 126.477 513.919 125.356 515.085 124.432C516.267 123.492 517.585 122.773 519.04 122.273C520.509 121.758 522.055 121.5 523.676 121.5C526.373 121.5 528.813 122.159 530.994 123.477C533.191 124.78 534.941 126.583 536.244 128.886C537.547 131.189 538.199 133.826 538.199 136.795C538.199 139.765 537.525 142.455 536.176 144.864C534.843 147.273 532.964 149.182 530.54 150.591C528.116 151.985 525.282 152.667 522.04 152.636ZM522.017 146.727C523.805 146.727 525.403 146.288 526.812 145.409C528.222 144.53 529.335 143.348 530.153 141.864C530.972 140.379 531.381 138.72 531.381 136.886C531.381 135.098 530.979 133.47 530.176 132C529.388 130.53 528.297 129.364 526.903 128.5C525.525 127.636 523.949 127.205 522.176 127.205C520.828 127.205 519.578 127.462 518.426 127.977C517.29 128.492 516.29 129.205 515.426 130.114C514.563 131.023 513.881 132.068 513.381 133.25C512.896 134.417 512.653 135.652 512.653 136.955C512.653 138.697 513.055 140.311 513.858 141.795C514.676 143.28 515.79 144.477 517.199 145.386C518.623 146.28 520.229 146.727 522.017 146.727ZM567.136 125.773V131.682H546.5V125.773H567.136ZM591.58 104.818C593.655 104.833 595.701 105.212 597.716 105.955C599.731 106.697 601.549 107.909 603.17 109.591C604.807 111.273 606.11 113.545 607.08 116.409C608.064 119.258 608.564 122.803 608.58 127.045C608.58 131.121 608.17 134.75 607.352 137.932C606.534 141.098 605.36 143.773 603.83 145.955C602.314 148.136 600.473 149.795 598.307 150.932C596.14 152.068 593.701 152.636 590.989 152.636C588.216 152.636 585.754 152.091 583.602 151C581.451 149.909 579.701 148.402 578.352 146.477C577.004 144.538 576.163 142.311 575.83 139.795H582.761C583.216 141.795 584.14 143.417 585.534 144.659C586.943 145.886 588.761 146.5 590.989 146.5C594.398 146.5 597.057 145.015 598.966 142.045C600.875 139.061 601.837 134.894 601.852 129.545H601.489C600.701 130.848 599.716 131.97 598.534 132.909C597.367 133.848 596.057 134.576 594.602 135.091C593.148 135.606 591.595 135.864 589.943 135.864C587.261 135.864 584.822 135.205 582.625 133.886C580.428 132.568 578.678 130.758 577.375 128.455C576.072 126.152 575.42 123.523 575.42 120.568C575.42 117.629 576.087 114.962 577.42 112.568C578.769 110.174 580.648 108.28 583.057 106.886C585.481 105.477 588.322 104.788 591.58 104.818ZM591.602 110.727C589.83 110.727 588.231 111.167 586.807 112.045C585.398 112.909 584.284 114.083 583.466 115.568C582.648 117.038 582.239 118.674 582.239 120.477C582.239 122.28 582.633 123.917 583.42 125.386C584.223 126.841 585.314 128 586.693 128.864C588.087 129.712 589.678 130.136 591.466 130.136C592.799 130.136 594.042 129.879 595.193 129.364C596.345 128.848 597.352 128.136 598.216 127.227C599.08 126.303 599.754 125.258 600.239 124.091C600.723 122.924 600.966 121.697 600.966 120.409C600.966 118.697 600.557 117.106 599.739 115.636C598.936 114.167 597.83 112.985 596.42 112.091C595.011 111.182 593.405 110.727 591.602 110.727ZM616.79 152V146.909L632.54 130.591C634.222 128.818 635.608 127.265 636.699 125.932C637.805 124.583 638.631 123.303 639.176 122.091C639.722 120.879 639.994 119.591 639.994 118.227C639.994 116.682 639.631 115.348 638.903 114.227C638.176 113.091 637.184 112.22 635.926 111.614C634.669 110.992 633.252 110.682 631.676 110.682C630.009 110.682 628.555 111.023 627.312 111.705C626.07 112.386 625.116 113.348 624.449 114.591C623.782 115.833 623.449 117.288 623.449 118.955H616.744C616.744 116.121 617.396 113.644 618.699 111.523C620.002 109.402 621.79 107.758 624.062 106.591C626.335 105.409 628.919 104.818 631.812 104.818C634.737 104.818 637.313 105.402 639.54 106.568C641.782 107.72 643.532 109.295 644.79 111.295C646.047 113.28 646.676 115.523 646.676 118.023C646.676 119.75 646.35 121.439 645.699 123.091C645.063 124.742 643.949 126.583 642.358 128.614C640.767 130.629 638.555 133.076 635.722 135.955L626.472 145.636V145.977H647.426V152H616.79ZM672.244 152.773C668.653 152.758 665.585 151.811 663.04 149.932C660.494 148.053 658.547 145.318 657.199 141.727C655.85 138.136 655.176 133.811 655.176 128.75C655.176 123.705 655.85 119.394 657.199 115.818C658.563 112.242 660.517 109.515 663.062 107.636C665.623 105.758 668.684 104.818 672.244 104.818C675.805 104.818 678.858 105.765 681.403 107.659C683.949 109.538 685.896 112.265 687.244 115.841C688.608 119.402 689.29 123.705 689.29 128.75C689.29 133.826 688.616 138.159 687.267 141.75C685.919 145.326 683.972 148.061 681.426 149.955C678.881 151.833 675.82 152.773 672.244 152.773ZM672.244 146.705C675.396 146.705 677.858 145.167 679.631 142.091C681.419 139.015 682.312 134.568 682.312 128.75C682.312 124.886 681.903 121.621 681.085 118.955C680.282 116.273 679.123 114.242 677.608 112.864C676.108 111.47 674.32 110.773 672.244 110.773C669.108 110.773 666.646 112.318 664.858 115.409C663.07 118.5 662.169 122.947 662.153 128.75C662.153 132.629 662.555 135.909 663.358 138.591C664.176 141.258 665.335 143.28 666.835 144.659C668.335 146.023 670.138 146.705 672.244 146.705ZM713.08 152.636C709.822 152.636 706.943 152.076 704.443 150.955C701.958 149.833 700.011 148.288 698.602 146.318C697.193 144.348 696.496 142.106 696.511 139.591C696.496 137.621 696.898 135.811 697.716 134.159C698.549 132.492 699.678 131.106 701.102 130C702.527 128.879 704.117 128.167 705.875 127.864V127.591C703.557 127.03 701.701 125.788 700.307 123.864C698.913 121.939 698.223 119.727 698.239 117.227C698.223 114.848 698.852 112.727 700.125 110.864C701.413 108.985 703.178 107.508 705.42 106.432C707.663 105.356 710.216 104.818 713.08 104.818C715.913 104.818 718.443 105.364 720.67 106.455C722.913 107.53 724.678 109.008 725.966 110.886C727.254 112.75 727.905 114.864 727.92 117.227C727.905 119.727 727.193 121.939 725.784 123.864C724.375 125.788 722.542 127.03 720.284 127.591V127.864C722.027 128.167 723.595 128.879 724.989 130C726.398 131.106 727.519 132.492 728.352 134.159C729.201 135.811 729.633 137.621 729.648 139.591C729.633 142.106 728.92 144.348 727.511 146.318C726.102 148.288 724.148 149.833 721.648 150.955C719.163 152.076 716.307 152.636 713.08 152.636ZM713.08 146.886C715.004 146.886 716.67 146.568 718.08 145.932C719.489 145.28 720.58 144.379 721.352 143.227C722.125 142.061 722.519 140.697 722.534 139.136C722.519 137.515 722.095 136.083 721.261 134.841C720.443 133.598 719.33 132.621 717.92 131.909C716.511 131.197 714.898 130.841 713.08 130.841C711.246 130.841 709.617 131.197 708.193 131.909C706.769 132.621 705.648 133.598 704.83 134.841C704.011 136.083 703.61 137.515 703.625 139.136C703.61 140.697 703.981 142.061 704.739 143.227C705.511 144.379 706.61 145.28 708.034 145.932C709.458 146.568 711.14 146.886 713.08 146.886ZM713.08 125.227C714.625 125.227 715.996 124.917 717.193 124.295C718.39 123.674 719.33 122.811 720.011 121.705C720.708 120.598 721.064 119.303 721.08 117.818C721.064 116.364 720.716 115.091 720.034 114C719.367 112.909 718.436 112.068 717.239 111.477C716.042 110.871 714.655 110.568 713.08 110.568C711.473 110.568 710.064 110.871 708.852 111.477C707.655 112.068 706.723 112.909 706.057 114C705.39 115.091 705.064 116.364 705.08 117.818C705.064 119.303 705.398 120.598 706.08 121.705C706.761 122.811 707.701 123.674 708.898 124.295C710.11 124.917 711.504 125.227 713.08 125.227Z" fill="#8D0C00"/>
<path d="M119.556 29.781C119.769 28.9838 120.137 28.2365 120.639 27.5817C121.141 26.9269 121.768 26.3774 122.482 25.9647C123.197 25.552 123.986 25.2842 124.804 25.1765C125.622 25.0688 126.453 25.1233 127.25 25.337C138.895 28.3751 149.519 34.4624 158.028 42.9719C166.538 51.4813 172.625 62.1054 175.663 73.7497C175.877 74.5468 175.931 75.3781 175.823 76.1962C175.716 77.0143 175.448 77.8032 175.035 78.5178C174.623 79.2323 174.073 79.8586 173.418 80.3607C172.763 80.8628 172.016 81.231 171.219 81.4443C170.688 81.5836 170.142 81.6549 169.594 81.6562C168.21 81.6562 166.864 81.199 165.767 80.3556C164.669 79.5122 163.881 78.3299 163.524 76.9924C161.047 67.4867 156.079 58.8138 149.132 51.8676C142.186 44.9214 133.513 39.9534 124.008 37.4755C123.21 37.2631 122.462 36.8955 121.806 36.3938C121.15 35.892 120.6 35.2659 120.186 34.5512C119.773 33.8366 119.504 33.0474 119.396 32.2289C119.288 31.4104 119.342 30.5785 119.556 29.781ZM117.726 62.6005C128.554 65.4899 135.51 72.4464 138.399 83.2737C138.756 84.6111 139.544 85.7934 140.642 86.6368C141.739 87.4802 143.085 87.9375 144.469 87.9375C145.017 87.9361 145.563 87.8649 146.094 87.7255C146.891 87.5123 147.638 87.1441 148.293 86.642C148.948 86.1398 149.498 85.5136 149.91 84.799C150.323 84.0844 150.591 83.2956 150.698 82.4774C150.806 81.6593 150.752 80.828 150.538 80.031C146.518 64.9874 136.013 54.482 120.969 50.462C120.172 50.2491 119.341 50.1952 118.523 50.3035C117.705 50.4118 116.917 50.6801 116.202 51.0932C115.488 51.5062 114.863 52.0558 114.361 52.7107C113.859 53.3656 113.491 54.1129 113.278 54.9099C113.065 55.7069 113.012 56.5381 113.12 57.3559C113.228 58.1738 113.497 58.9623 113.91 59.6764C114.323 60.3905 114.872 61.0163 115.527 61.518C116.182 62.0198 116.929 62.3876 117.726 62.6005ZM182.062 137.465C180.662 148.104 175.437 157.87 167.363 164.938C159.289 172.007 148.918 175.894 138.187 175.875C75.846 175.875 25.1249 125.154 25.1249 62.8125C25.1057 52.0817 28.9933 41.7108 36.0617 33.6368C43.13 25.5629 52.8957 20.338 63.5348 18.938C66.2252 18.6095 68.9496 19.1599 71.3015 20.507C73.6533 21.8542 75.5064 23.9258 76.5841 26.4127L93.1666 63.4328V63.527C93.9917 65.4306 94.3325 67.509 94.1585 69.5764C93.9845 71.6439 93.3011 73.636 92.1694 75.375C92.0281 75.587 91.8789 75.7833 91.7219 75.9796L75.375 95.3572C81.2558 107.307 93.7555 119.697 105.863 125.594L124.973 109.333C125.161 109.175 125.358 109.028 125.562 108.893C127.3 107.734 129.299 107.027 131.378 106.835C133.458 106.643 135.553 106.973 137.473 107.794L137.575 107.841L174.564 124.416C177.055 125.49 179.132 127.341 180.483 129.693C181.835 132.046 182.389 134.772 182.062 137.465ZM169.594 135.895C169.594 135.895 169.539 135.895 169.507 135.895L132.605 119.367L113.486 135.628C113.301 135.785 113.107 135.932 112.905 136.068C111.098 137.274 109.008 137.99 106.84 138.147C104.673 138.304 102.502 137.896 100.539 136.963C85.8332 129.857 71.1744 115.308 64.0608 100.759C63.1189 98.8108 62.6962 96.6522 62.8338 94.4925C62.9713 92.3328 63.6645 90.2452 64.846 88.4321C64.9792 88.2193 65.1288 88.0171 65.2935 87.8276L81.6562 68.4264L65.1679 31.524C65.1648 31.4927 65.1648 31.4611 65.1679 31.4298C57.5539 32.423 50.5631 36.1577 45.5046 41.9345C40.4461 47.7113 37.6669 55.134 37.6874 62.8125C37.7165 89.4578 48.3143 115.003 67.1554 133.845C85.9965 152.686 111.542 163.283 138.187 163.312C145.861 163.339 153.282 160.569 159.062 155.522C164.842 150.474 168.586 143.494 169.594 135.887V135.895Z" fill="#8D0C00"/>
</svg>
