<svg xmlns="http://www.w3.org/2000/svg" xmlns:xlink="http://www.w3.org/1999/xlink" width="300" zoomAndPan="magnify" viewBox="0 0 224.87999 225" height="300" preserveAspectRatio="xMidYMid meet" version="1.0"><defs><g/><clipPath id="aedfcdec01"><path d="M 57.144531 103.261719 L 155.3125 103.261719 L 155.3125 121.738281 L 57.144531 121.738281 Z M 57.144531 103.261719 " clip-rule="nonzero"/></clipPath><clipPath id="5ff18c415f"><path d="M 60.140625 103.261719 L 152.289062 103.261719 C 153.085938 103.261719 153.847656 103.578125 154.410156 104.140625 C 154.972656 104.703125 155.289062 105.464844 155.289062 106.257812 L 155.289062 118.742188 C 155.289062 119.535156 154.972656 120.296875 154.410156 120.859375 C 153.847656 121.421875 153.085938 121.738281 152.289062 121.738281 L 60.140625 121.738281 C 59.347656 121.738281 58.585938 121.421875 58.023438 120.859375 C 57.460938 120.296875 57.144531 119.535156 57.144531 118.742188 L 57.144531 106.257812 C 57.144531 105.464844 57.460938 104.703125 58.023438 104.140625 C 58.585938 103.578125 59.347656 103.261719 60.140625 103.261719 Z M 60.140625 103.261719 " clip-rule="nonzero"/></clipPath><clipPath id="7dd2253241"><path d="M 64 106.09375 L 74.871094 106.09375 L 74.871094 118.835938 L 64 118.835938 Z M 64 106.09375 " clip-rule="nonzero"/></clipPath></defs><g clip-path="url(#aedfcdec01)"><g clip-path="url(#5ff18c415f)"><path fill="#41b010" d="M 57.144531 103.261719 L 155.3125 103.261719 L 155.3125 121.738281 L 57.144531 121.738281 Z M 57.144531 103.261719 " fill-opacity="1" fill-rule="nonzero"/></g></g><g clip-path="url(#7dd2253241)"><path fill="#ffffff" d="M 74.785156 111.898438 C 74.78125 114.734375 72.917969 116.984375 70.261719 117.40625 C 69.445312 117.535156 68.609375 117.554688 67.835938 117.132812 C 67.675781 117.042969 67.554688 117.121094 67.429688 117.207031 C 66.824219 117.613281 66.222656 118.011719 65.617188 118.410156 C 65.484375 118.5 65.34375 118.585938 65.203125 118.660156 C 65 118.769531 64.785156 118.902344 64.558594 118.742188 C 64.3125 118.566406 64.390625 118.316406 64.4375 118.078125 C 64.597656 117.3125 64.773438 116.542969 65.058594 115.816406 C 65.214844 115.417969 65.167969 115.128906 64.9375 114.773438 C 63.632812 112.761719 63.816406 110.074219 65.386719 108.253906 C 66.703125 106.726562 68.386719 106.09375 70.367188 106.484375 C 72.421875 106.886719 73.765625 108.175781 74.484375 110.125 C 74.703125 110.722656 74.800781 111.347656 74.785156 111.898438 Z M 65.179688 117.800781 C 65.203125 117.820312 65.222656 117.839844 65.246094 117.859375 C 65.820312 117.480469 66.402344 117.109375 66.964844 116.722656 C 67.25 116.527344 67.515625 116.46875 67.867188 116.554688 C 68.648438 116.746094 69.449219 116.871094 70.257812 116.71875 C 73.148438 116.175781 74.839844 113.132812 73.804688 110.289062 C 73.160156 108.527344 71.902344 107.40625 70.039062 107.117188 C 68.265625 106.84375 66.789062 107.472656 65.695312 108.898438 C 64.433594 110.535156 64.371094 112.84375 65.527344 114.746094 C 65.730469 115.085938 65.769531 115.402344 65.679688 115.761719 C 65.511719 116.441406 65.34375 117.121094 65.179688 117.800781 Z M 65.179688 117.800781 " fill-opacity="1" fill-rule="nonzero"/></g><path fill="#ffffff" d="M 66.882812 110.484375 C 66.894531 110.132812 66.984375 109.800781 67.152344 109.496094 C 67.394531 109.066406 67.796875 109.019531 68.136719 109.367188 C 68.335938 109.574219 68.515625 109.796875 68.667969 110.042969 C 68.859375 110.351562 68.914062 110.660156 68.691406 110.976562 C 68.554688 111.164062 68.601562 111.347656 68.714844 111.523438 C 68.957031 111.902344 69.242188 112.25 69.570312 112.554688 C 69.824219 112.789062 70.113281 112.792969 70.398438 112.617188 C 70.6875 112.4375 70.96875 112.359375 71.253906 112.609375 C 71.59375 112.90625 71.945312 113.214844 71.863281 113.730469 C 71.804688 114.078125 71.519531 114.242188 71.230469 114.359375 C 70.460938 114.675781 69.722656 114.554688 69.082031 114.0625 C 68.070312 113.285156 67.382812 112.261719 66.960938 111.0625 C 66.894531 110.878906 66.871094 110.683594 66.882812 110.484375 Z M 66.882812 110.484375 " fill-opacity="1" fill-rule="nonzero"/><path fill="#ffffff" d="M 73.011719 110.863281 C 72.734375 110.769531 72.585938 110.554688 72.480469 110.308594 C 72.148438 109.496094 71.644531 108.832031 70.867188 108.390625 C 70.773438 108.339844 70.632812 108.28125 70.699219 108.132812 C 70.753906 108 70.898438 108.035156 71.003906 108.054688 C 71.402344 108.132812 71.734375 108.335938 72.023438 108.609375 C 72.480469 109.042969 72.816406 109.5625 73.027344 110.15625 C 73.109375 110.394531 73.136719 110.625 73.011719 110.863281 Z M 73.011719 110.863281 " fill-opacity="1" fill-rule="nonzero"/><path fill="#ffffff" d="M 73.53125 112.113281 C 73.519531 112.265625 73.488281 112.410156 73.308594 112.402344 C 73.140625 112.394531 73.09375 112.25 73.089844 112.105469 C 73.089844 111.96875 73.085938 111.792969 73.265625 111.785156 C 73.472656 111.773438 73.5 111.960938 73.53125 112.113281 Z M 73.53125 112.113281 " fill-opacity="1" fill-rule="nonzero"/><g fill="#ffffff" fill-opacity="1"><g transform="translate(77.044077, 115.165305)"><g><path d="M 0.703125 0 L 0.703125 -5.8125 L 4.1875 -5.8125 L 4.1875 -5.1875 L 1.40625 -5.1875 L 1.40625 -3.234375 L 3.9375 -3.234375 L 3.9375 -2.609375 L 1.40625 -2.609375 L 1.40625 0 Z M 0.703125 0 "/></g></g></g><g fill="#ffffff" fill-opacity="1"><g transform="translate(81.734741, 115.165305)"><g><path d="M 1.890625 0.109375 C 1.617188 0.109375 1.367188 0.0546875 1.140625 -0.046875 C 0.921875 -0.160156 0.742188 -0.316406 0.609375 -0.515625 C 0.472656 -0.710938 0.40625 -0.953125 0.40625 -1.234375 C 0.40625 -1.484375 0.453125 -1.6875 0.546875 -1.84375 C 0.648438 -2 0.785156 -2.117188 0.953125 -2.203125 C 1.117188 -2.296875 1.300781 -2.363281 1.5 -2.40625 C 1.695312 -2.457031 1.898438 -2.492188 2.109375 -2.515625 C 2.367188 -2.554688 2.582031 -2.582031 2.75 -2.59375 C 2.914062 -2.613281 3.035156 -2.644531 3.109375 -2.6875 C 3.191406 -2.738281 3.234375 -2.816406 3.234375 -2.921875 L 3.234375 -2.9375 C 3.234375 -3.21875 3.15625 -3.4375 3 -3.59375 C 2.84375 -3.75 2.613281 -3.828125 2.3125 -3.828125 C 1.988281 -3.828125 1.734375 -3.753906 1.546875 -3.609375 C 1.367188 -3.472656 1.242188 -3.328125 1.171875 -3.171875 L 0.53125 -3.390625 C 0.644531 -3.660156 0.796875 -3.867188 0.984375 -4.015625 C 1.179688 -4.160156 1.390625 -4.265625 1.609375 -4.328125 C 1.835938 -4.390625 2.0625 -4.421875 2.28125 -4.421875 C 2.425781 -4.421875 2.585938 -4.40625 2.765625 -4.375 C 2.953125 -4.34375 3.128906 -4.273438 3.296875 -4.171875 C 3.472656 -4.066406 3.613281 -3.910156 3.71875 -3.703125 C 3.832031 -3.492188 3.890625 -3.21875 3.890625 -2.875 L 3.890625 0 L 3.234375 0 L 3.234375 -0.59375 L 3.1875 -0.59375 C 3.144531 -0.5 3.070312 -0.394531 2.96875 -0.28125 C 2.863281 -0.175781 2.722656 -0.0820312 2.546875 0 C 2.367188 0.0703125 2.148438 0.109375 1.890625 0.109375 Z M 2 -0.5 C 2.257812 -0.5 2.484375 -0.550781 2.671875 -0.65625 C 2.859375 -0.757812 3 -0.894531 3.09375 -1.0625 C 3.1875 -1.226562 3.234375 -1.398438 3.234375 -1.578125 L 3.234375 -2.1875 C 3.203125 -2.15625 3.132812 -2.125 3.03125 -2.09375 C 2.9375 -2.070312 2.828125 -2.050781 2.703125 -2.03125 C 2.585938 -2.007812 2.46875 -1.988281 2.34375 -1.96875 C 2.226562 -1.957031 2.132812 -1.945312 2.0625 -1.9375 C 1.894531 -1.914062 1.734375 -1.878906 1.578125 -1.828125 C 1.429688 -1.785156 1.3125 -1.710938 1.21875 -1.609375 C 1.125 -1.503906 1.078125 -1.367188 1.078125 -1.203125 C 1.078125 -0.972656 1.160156 -0.796875 1.328125 -0.671875 C 1.503906 -0.554688 1.726562 -0.5 2 -0.5 Z M 2 -0.5 "/></g></g></g><g fill="#ffffff" fill-opacity="1"><g transform="translate(86.243684, 115.165305)"><g><path d="M 1.28125 -5.8125 L 1.28125 0 L 0.609375 0 L 0.609375 -5.8125 Z M 1.28125 -5.8125 "/></g></g></g><g fill="#ffffff" fill-opacity="1"><g transform="translate(88.140387, 115.165305)"><g><path d="M 1.890625 0.109375 C 1.617188 0.109375 1.367188 0.0546875 1.140625 -0.046875 C 0.921875 -0.160156 0.742188 -0.316406 0.609375 -0.515625 C 0.472656 -0.710938 0.40625 -0.953125 0.40625 -1.234375 C 0.40625 -1.484375 0.453125 -1.6875 0.546875 -1.84375 C 0.648438 -2 0.785156 -2.117188 0.953125 -2.203125 C 1.117188 -2.296875 1.300781 -2.363281 1.5 -2.40625 C 1.695312 -2.457031 1.898438 -2.492188 2.109375 -2.515625 C 2.367188 -2.554688 2.582031 -2.582031 2.75 -2.59375 C 2.914062 -2.613281 3.035156 -2.644531 3.109375 -2.6875 C 3.191406 -2.738281 3.234375 -2.816406 3.234375 -2.921875 L 3.234375 -2.9375 C 3.234375 -3.21875 3.15625 -3.4375 3 -3.59375 C 2.84375 -3.75 2.613281 -3.828125 2.3125 -3.828125 C 1.988281 -3.828125 1.734375 -3.753906 1.546875 -3.609375 C 1.367188 -3.472656 1.242188 -3.328125 1.171875 -3.171875 L 0.53125 -3.390625 C 0.644531 -3.660156 0.796875 -3.867188 0.984375 -4.015625 C 1.179688 -4.160156 1.390625 -4.265625 1.609375 -4.328125 C 1.835938 -4.390625 2.0625 -4.421875 2.28125 -4.421875 C 2.425781 -4.421875 2.585938 -4.40625 2.765625 -4.375 C 2.953125 -4.34375 3.128906 -4.273438 3.296875 -4.171875 C 3.472656 -4.066406 3.613281 -3.910156 3.71875 -3.703125 C 3.832031 -3.492188 3.890625 -3.21875 3.890625 -2.875 L 3.890625 0 L 3.234375 0 L 3.234375 -0.59375 L 3.1875 -0.59375 C 3.144531 -0.5 3.070312 -0.394531 2.96875 -0.28125 C 2.863281 -0.175781 2.722656 -0.0820312 2.546875 0 C 2.367188 0.0703125 2.148438 0.109375 1.890625 0.109375 Z M 2 -0.5 C 2.257812 -0.5 2.484375 -0.550781 2.671875 -0.65625 C 2.859375 -0.757812 3 -0.894531 3.09375 -1.0625 C 3.1875 -1.226562 3.234375 -1.398438 3.234375 -1.578125 L 3.234375 -2.1875 C 3.203125 -2.15625 3.132812 -2.125 3.03125 -2.09375 C 2.9375 -2.070312 2.828125 -2.050781 2.703125 -2.03125 C 2.585938 -2.007812 2.46875 -1.988281 2.34375 -1.96875 C 2.226562 -1.957031 2.132812 -1.945312 2.0625 -1.9375 C 1.894531 -1.914062 1.734375 -1.878906 1.578125 -1.828125 C 1.429688 -1.785156 1.3125 -1.710938 1.21875 -1.609375 C 1.125 -1.503906 1.078125 -1.367188 1.078125 -1.203125 C 1.078125 -0.972656 1.160156 -0.796875 1.328125 -0.671875 C 1.503906 -0.554688 1.726562 -0.5 2 -0.5 Z M 2 -0.5 "/></g></g></g><g fill="#ffffff" fill-opacity="1"><g transform="translate(92.64933, 115.165305)"><g><path d="M 0.609375 0 L 0.609375 -4.359375 L 1.265625 -4.359375 L 1.265625 -3.703125 L 1.3125 -3.703125 C 1.382812 -3.921875 1.523438 -4.097656 1.734375 -4.234375 C 1.941406 -4.367188 2.175781 -4.4375 2.4375 -4.4375 C 2.5625 -4.4375 2.664062 -4.421875 2.75 -4.390625 C 2.84375 -4.359375 2.925781 -4.316406 3 -4.265625 L 2.765625 -3.703125 C 2.722656 -3.722656 2.671875 -3.738281 2.609375 -3.75 C 2.546875 -3.769531 2.472656 -3.78125 2.390625 -3.78125 C 2.066406 -3.78125 1.800781 -3.679688 1.59375 -3.484375 C 1.382812 -3.296875 1.28125 -3.054688 1.28125 -2.765625 L 1.28125 0 Z M 0.609375 0 "/></g></g></g><g fill="#ffffff" fill-opacity="1"><g transform="translate(95.715866, 115.165305)"><g/></g></g><g fill="#ffffff" fill-opacity="1"><g transform="translate(97.964654, 115.165305)"><g><path d="M 1.28125 -2.625 L 1.28125 0 L 0.609375 0 L 0.609375 -4.359375 L 1.265625 -4.359375 L 1.265625 -3.6875 L 1.3125 -3.6875 C 1.414062 -3.90625 1.570312 -4.082031 1.78125 -4.21875 C 1.988281 -4.351562 2.257812 -4.421875 2.59375 -4.421875 C 3.03125 -4.421875 3.382812 -4.285156 3.65625 -4.015625 C 3.925781 -3.742188 4.0625 -3.328125 4.0625 -2.765625 L 4.0625 0 L 3.390625 0 L 3.390625 -2.734375 C 3.390625 -3.066406 3.300781 -3.328125 3.125 -3.515625 C 2.945312 -3.710938 2.703125 -3.8125 2.390625 -3.8125 C 2.078125 -3.8125 1.8125 -3.707031 1.59375 -3.5 C 1.382812 -3.300781 1.28125 -3.007812 1.28125 -2.625 Z M 1.28125 -2.625 "/></g></g></g><g fill="#ffffff" fill-opacity="1"><g transform="translate(102.643961, 115.165305)"><g><path d="M 2.390625 0.09375 C 1.992188 0.09375 1.644531 0 1.34375 -0.1875 C 1.050781 -0.375 0.820312 -0.632812 0.65625 -0.96875 C 0.488281 -1.3125 0.40625 -1.707031 0.40625 -2.15625 C 0.40625 -2.613281 0.488281 -3.007812 0.65625 -3.34375 C 0.820312 -3.6875 1.050781 -3.953125 1.34375 -4.140625 C 1.644531 -4.328125 1.992188 -4.421875 2.390625 -4.421875 C 2.785156 -4.421875 3.128906 -4.328125 3.421875 -4.140625 C 3.710938 -3.953125 3.941406 -3.6875 4.109375 -3.34375 C 4.273438 -3.007812 4.359375 -2.613281 4.359375 -2.15625 C 4.359375 -1.707031 4.273438 -1.3125 4.109375 -0.96875 C 3.941406 -0.632812 3.710938 -0.375 3.421875 -0.1875 C 3.128906 0 2.785156 0.09375 2.390625 0.09375 Z M 2.390625 -0.515625 C 2.679688 -0.515625 2.925781 -0.585938 3.125 -0.734375 C 3.320312 -0.890625 3.460938 -1.09375 3.546875 -1.34375 C 3.640625 -1.59375 3.6875 -1.863281 3.6875 -2.15625 C 3.6875 -2.445312 3.640625 -2.71875 3.546875 -2.96875 C 3.460938 -3.226562 3.320312 -3.429688 3.125 -3.578125 C 2.925781 -3.734375 2.679688 -3.8125 2.390625 -3.8125 C 2.085938 -3.8125 1.835938 -3.734375 1.640625 -3.578125 C 1.453125 -3.429688 1.3125 -3.226562 1.21875 -2.96875 C 1.125 -2.71875 1.078125 -2.445312 1.078125 -2.15625 C 1.078125 -1.863281 1.125 -1.59375 1.21875 -1.34375 C 1.3125 -1.09375 1.453125 -0.890625 1.640625 -0.734375 C 1.835938 -0.585938 2.085938 -0.515625 2.390625 -0.515625 Z M 2.390625 -0.515625 "/></g></g></g><g fill="#ffffff" fill-opacity="1"><g transform="translate(107.414122, 115.165305)"><g/></g></g><g fill="#ffffff" fill-opacity="1"><g transform="translate(109.66291, 115.165305)"><g><path d="M 1.765625 0 L 0.171875 -5.8125 L 0.890625 -5.8125 L 2.109375 -1.078125 L 2.15625 -1.078125 L 3.390625 -5.8125 L 4.1875 -5.8125 L 5.4375 -1.078125 L 5.484375 -1.078125 L 6.703125 -5.8125 L 7.421875 -5.8125 L 5.828125 0 L 5.109375 0 L 3.8125 -4.640625 L 3.765625 -4.640625 L 2.484375 0 Z M 1.765625 0 "/></g></g></g><g fill="#ffffff" fill-opacity="1"><g transform="translate(117.249746, 115.165305)"><g><path d="M 1.28125 -2.625 L 1.28125 0 L 0.609375 0 L 0.609375 -5.8125 L 1.28125 -5.8125 L 1.28125 -3.6875 L 1.34375 -3.6875 C 1.445312 -3.90625 1.597656 -4.082031 1.796875 -4.21875 C 2.003906 -4.351562 2.28125 -4.421875 2.625 -4.421875 C 3.070312 -4.421875 3.429688 -4.285156 3.703125 -4.015625 C 3.972656 -3.742188 4.109375 -3.328125 4.109375 -2.765625 L 4.109375 0 L 3.4375 0 L 3.4375 -2.734375 C 3.4375 -3.078125 3.347656 -3.34375 3.171875 -3.53125 C 2.992188 -3.71875 2.75 -3.8125 2.4375 -3.8125 C 2.101562 -3.8125 1.828125 -3.707031 1.609375 -3.5 C 1.390625 -3.300781 1.28125 -3.007812 1.28125 -2.625 Z M 1.28125 -2.625 "/></g></g></g><g fill="#ffffff" fill-opacity="1"><g transform="translate(121.97448, 115.165305)"><g><path d="M 1.890625 0.109375 C 1.617188 0.109375 1.367188 0.0546875 1.140625 -0.046875 C 0.921875 -0.160156 0.742188 -0.316406 0.609375 -0.515625 C 0.472656 -0.710938 0.40625 -0.953125 0.40625 -1.234375 C 0.40625 -1.484375 0.453125 -1.6875 0.546875 -1.84375 C 0.648438 -2 0.785156 -2.117188 0.953125 -2.203125 C 1.117188 -2.296875 1.300781 -2.363281 1.5 -2.40625 C 1.695312 -2.457031 1.898438 -2.492188 2.109375 -2.515625 C 2.367188 -2.554688 2.582031 -2.582031 2.75 -2.59375 C 2.914062 -2.613281 3.035156 -2.644531 3.109375 -2.6875 C 3.191406 -2.738281 3.234375 -2.816406 3.234375 -2.921875 L 3.234375 -2.9375 C 3.234375 -3.21875 3.15625 -3.4375 3 -3.59375 C 2.84375 -3.75 2.613281 -3.828125 2.3125 -3.828125 C 1.988281 -3.828125 1.734375 -3.753906 1.546875 -3.609375 C 1.367188 -3.472656 1.242188 -3.328125 1.171875 -3.171875 L 0.53125 -3.390625 C 0.644531 -3.660156 0.796875 -3.867188 0.984375 -4.015625 C 1.179688 -4.160156 1.390625 -4.265625 1.609375 -4.328125 C 1.835938 -4.390625 2.0625 -4.421875 2.28125 -4.421875 C 2.425781 -4.421875 2.585938 -4.40625 2.765625 -4.375 C 2.953125 -4.34375 3.128906 -4.273438 3.296875 -4.171875 C 3.472656 -4.066406 3.613281 -3.910156 3.71875 -3.703125 C 3.832031 -3.492188 3.890625 -3.21875 3.890625 -2.875 L 3.890625 0 L 3.234375 0 L 3.234375 -0.59375 L 3.1875 -0.59375 C 3.144531 -0.5 3.070312 -0.394531 2.96875 -0.28125 C 2.863281 -0.175781 2.722656 -0.0820312 2.546875 0 C 2.367188 0.0703125 2.148438 0.109375 1.890625 0.109375 Z M 2 -0.5 C 2.257812 -0.5 2.484375 -0.550781 2.671875 -0.65625 C 2.859375 -0.757812 3 -0.894531 3.09375 -1.0625 C 3.1875 -1.226562 3.234375 -1.398438 3.234375 -1.578125 L 3.234375 -2.1875 C 3.203125 -2.15625 3.132812 -2.125 3.03125 -2.09375 C 2.9375 -2.070312 2.828125 -2.050781 2.703125 -2.03125 C 2.585938 -2.007812 2.46875 -1.988281 2.34375 -1.96875 C 2.226562 -1.957031 2.132812 -1.945312 2.0625 -1.9375 C 1.894531 -1.914062 1.734375 -1.878906 1.578125 -1.828125 C 1.429688 -1.785156 1.3125 -1.710938 1.21875 -1.609375 C 1.125 -1.503906 1.078125 -1.367188 1.078125 -1.203125 C 1.078125 -0.972656 1.160156 -0.796875 1.328125 -0.671875 C 1.503906 -0.554688 1.726562 -0.5 2 -0.5 Z M 2 -0.5 "/></g></g></g><g fill="#ffffff" fill-opacity="1"><g transform="translate(126.483423, 115.165305)"><g><path d="M 2.515625 -4.359375 L 2.515625 -3.796875 L 1.578125 -3.796875 L 1.578125 -1.25 C 1.578125 -1.0625 1.601562 -0.921875 1.65625 -0.828125 C 1.71875 -0.734375 1.789062 -0.671875 1.875 -0.640625 C 1.96875 -0.609375 2.0625 -0.59375 2.15625 -0.59375 C 2.226562 -0.59375 2.285156 -0.59375 2.328125 -0.59375 C 2.378906 -0.601562 2.421875 -0.613281 2.453125 -0.625 L 2.59375 -0.015625 C 2.539062 -0.00390625 2.472656 0.0078125 2.390625 0.03125 C 2.316406 0.0507812 2.21875 0.0625 2.09375 0.0625 C 1.90625 0.0625 1.71875 0.0195312 1.53125 -0.0625 C 1.351562 -0.144531 1.203125 -0.269531 1.078125 -0.4375 C 0.960938 -0.601562 0.90625 -0.8125 0.90625 -1.0625 L 0.90625 -3.796875 L 0.25 -3.796875 L 0.25 -4.359375 L 0.90625 -4.359375 L 0.90625 -5.40625 L 1.578125 -5.40625 L 1.578125 -4.359375 Z M 2.515625 -4.359375 "/></g></g></g><g fill="#ffffff" fill-opacity="1"><g transform="translate(129.390952, 115.165305)"><g><path d="M 3.703125 -3.390625 L 3.109375 -3.21875 C 3.046875 -3.363281 2.941406 -3.503906 2.796875 -3.640625 C 2.660156 -3.773438 2.445312 -3.84375 2.15625 -3.84375 C 1.894531 -3.84375 1.675781 -3.78125 1.5 -3.65625 C 1.320312 -3.53125 1.234375 -3.375 1.234375 -3.1875 C 1.234375 -3.019531 1.289062 -2.890625 1.40625 -2.796875 C 1.53125 -2.703125 1.722656 -2.625 1.984375 -2.5625 L 2.625 -2.390625 C 3.394531 -2.203125 3.78125 -1.8125 3.78125 -1.21875 C 3.78125 -0.96875 3.707031 -0.742188 3.5625 -0.546875 C 3.425781 -0.347656 3.226562 -0.191406 2.96875 -0.078125 C 2.71875 0.0351562 2.421875 0.09375 2.078125 0.09375 C 1.628906 0.09375 1.257812 0 0.96875 -0.1875 C 0.675781 -0.382812 0.492188 -0.671875 0.421875 -1.046875 L 1.0625 -1.203125 C 1.175781 -0.734375 1.507812 -0.5 2.0625 -0.5 C 2.375 -0.5 2.625 -0.566406 2.8125 -0.703125 C 3 -0.835938 3.09375 -1 3.09375 -1.1875 C 3.09375 -1.488281 2.875 -1.691406 2.4375 -1.796875 L 1.71875 -1.96875 C 1.3125 -2.0625 1.015625 -2.207031 0.828125 -2.40625 C 0.648438 -2.601562 0.5625 -2.851562 0.5625 -3.15625 C 0.5625 -3.40625 0.628906 -3.625 0.765625 -3.8125 C 0.898438 -4 1.085938 -4.144531 1.328125 -4.25 C 1.578125 -4.363281 1.851562 -4.421875 2.15625 -4.421875 C 2.59375 -4.421875 2.929688 -4.328125 3.171875 -4.140625 C 3.421875 -3.953125 3.597656 -3.703125 3.703125 -3.390625 Z M 3.703125 -3.390625 "/></g></g></g><g fill="#ffffff" fill-opacity="1"><g transform="translate(133.570524, 115.165305)"><g><path d="M 1.890625 0.109375 C 1.617188 0.109375 1.367188 0.0546875 1.140625 -0.046875 C 0.921875 -0.160156 0.742188 -0.316406 0.609375 -0.515625 C 0.472656 -0.710938 0.40625 -0.953125 0.40625 -1.234375 C 0.40625 -1.484375 0.453125 -1.6875 0.546875 -1.84375 C 0.648438 -2 0.785156 -2.117188 0.953125 -2.203125 C 1.117188 -2.296875 1.300781 -2.363281 1.5 -2.40625 C 1.695312 -2.457031 1.898438 -2.492188 2.109375 -2.515625 C 2.367188 -2.554688 2.582031 -2.582031 2.75 -2.59375 C 2.914062 -2.613281 3.035156 -2.644531 3.109375 -2.6875 C 3.191406 -2.738281 3.234375 -2.816406 3.234375 -2.921875 L 3.234375 -2.9375 C 3.234375 -3.21875 3.15625 -3.4375 3 -3.59375 C 2.84375 -3.75 2.613281 -3.828125 2.3125 -3.828125 C 1.988281 -3.828125 1.734375 -3.753906 1.546875 -3.609375 C 1.367188 -3.472656 1.242188 -3.328125 1.171875 -3.171875 L 0.53125 -3.390625 C 0.644531 -3.660156 0.796875 -3.867188 0.984375 -4.015625 C 1.179688 -4.160156 1.390625 -4.265625 1.609375 -4.328125 C 1.835938 -4.390625 2.0625 -4.421875 2.28125 -4.421875 C 2.425781 -4.421875 2.585938 -4.40625 2.765625 -4.375 C 2.953125 -4.34375 3.128906 -4.273438 3.296875 -4.171875 C 3.472656 -4.066406 3.613281 -3.910156 3.71875 -3.703125 C 3.832031 -3.492188 3.890625 -3.21875 3.890625 -2.875 L 3.890625 0 L 3.234375 0 L 3.234375 -0.59375 L 3.1875 -0.59375 C 3.144531 -0.5 3.070312 -0.394531 2.96875 -0.28125 C 2.863281 -0.175781 2.722656 -0.0820312 2.546875 0 C 2.367188 0.0703125 2.148438 0.109375 1.890625 0.109375 Z M 2 -0.5 C 2.257812 -0.5 2.484375 -0.550781 2.671875 -0.65625 C 2.859375 -0.757812 3 -0.894531 3.09375 -1.0625 C 3.1875 -1.226562 3.234375 -1.398438 3.234375 -1.578125 L 3.234375 -2.1875 C 3.203125 -2.15625 3.132812 -2.125 3.03125 -2.09375 C 2.9375 -2.070312 2.828125 -2.050781 2.703125 -2.03125 C 2.585938 -2.007812 2.46875 -1.988281 2.34375 -1.96875 C 2.226562 -1.957031 2.132812 -1.945312 2.0625 -1.9375 C 1.894531 -1.914062 1.734375 -1.878906 1.578125 -1.828125 C 1.429688 -1.785156 1.3125 -1.710938 1.21875 -1.609375 C 1.125 -1.503906 1.078125 -1.367188 1.078125 -1.203125 C 1.078125 -0.972656 1.160156 -0.796875 1.328125 -0.671875 C 1.503906 -0.554688 1.726562 -0.5 2 -0.5 Z M 2 -0.5 "/></g></g></g><g fill="#ffffff" fill-opacity="1"><g transform="translate(138.079467, 115.165305)"><g><path d="M 0.609375 1.640625 L 0.609375 -4.359375 L 1.265625 -4.359375 L 1.265625 -3.671875 L 1.34375 -3.671875 C 1.394531 -3.742188 1.460938 -3.835938 1.546875 -3.953125 C 1.628906 -4.078125 1.753906 -4.1875 1.921875 -4.28125 C 2.085938 -4.375 2.316406 -4.421875 2.609375 -4.421875 C 2.972656 -4.421875 3.296875 -4.328125 3.578125 -4.140625 C 3.859375 -3.960938 4.078125 -3.703125 4.234375 -3.359375 C 4.390625 -3.023438 4.46875 -2.628906 4.46875 -2.171875 C 4.46875 -1.710938 4.390625 -1.3125 4.234375 -0.96875 C 4.078125 -0.632812 3.859375 -0.375 3.578125 -0.1875 C 3.296875 0 2.972656 0.09375 2.609375 0.09375 C 2.328125 0.09375 2.101562 0.046875 1.9375 -0.046875 C 1.769531 -0.140625 1.640625 -0.242188 1.546875 -0.359375 C 1.460938 -0.484375 1.394531 -0.585938 1.34375 -0.671875 L 1.28125 -0.671875 L 1.28125 1.640625 Z M 1.265625 -2.1875 C 1.265625 -1.6875 1.375 -1.28125 1.59375 -0.96875 C 1.8125 -0.664062 2.117188 -0.515625 2.515625 -0.515625 C 2.796875 -0.515625 3.03125 -0.585938 3.21875 -0.734375 C 3.414062 -0.878906 3.5625 -1.078125 3.65625 -1.328125 C 3.75 -1.585938 3.796875 -1.875 3.796875 -2.1875 C 3.796875 -2.488281 3.75 -2.765625 3.65625 -3.015625 C 3.5625 -3.265625 3.421875 -3.457031 3.234375 -3.59375 C 3.046875 -3.738281 2.804688 -3.8125 2.515625 -3.8125 C 2.109375 -3.8125 1.796875 -3.660156 1.578125 -3.359375 C 1.367188 -3.066406 1.265625 -2.675781 1.265625 -2.1875 Z M 1.265625 -2.1875 "/></g></g></g><g fill="#ffffff" fill-opacity="1"><g transform="translate(142.951851, 115.165305)"><g><path d="M 0.609375 1.640625 L 0.609375 -4.359375 L 1.265625 -4.359375 L 1.265625 -3.671875 L 1.34375 -3.671875 C 1.394531 -3.742188 1.460938 -3.835938 1.546875 -3.953125 C 1.628906 -4.078125 1.753906 -4.1875 1.921875 -4.28125 C 2.085938 -4.375 2.316406 -4.421875 2.609375 -4.421875 C 2.972656 -4.421875 3.296875 -4.328125 3.578125 -4.140625 C 3.859375 -3.960938 4.078125 -3.703125 4.234375 -3.359375 C 4.390625 -3.023438 4.46875 -2.628906 4.46875 -2.171875 C 4.46875 -1.710938 4.390625 -1.3125 4.234375 -0.96875 C 4.078125 -0.632812 3.859375 -0.375 3.578125 -0.1875 C 3.296875 0 2.972656 0.09375 2.609375 0.09375 C 2.328125 0.09375 2.101562 0.046875 1.9375 -0.046875 C 1.769531 -0.140625 1.640625 -0.242188 1.546875 -0.359375 C 1.460938 -0.484375 1.394531 -0.585938 1.34375 -0.671875 L 1.28125 -0.671875 L 1.28125 1.640625 Z M 1.265625 -2.1875 C 1.265625 -1.6875 1.375 -1.28125 1.59375 -0.96875 C 1.8125 -0.664062 2.117188 -0.515625 2.515625 -0.515625 C 2.796875 -0.515625 3.03125 -0.585938 3.21875 -0.734375 C 3.414062 -0.878906 3.5625 -1.078125 3.65625 -1.328125 C 3.75 -1.585938 3.796875 -1.875 3.796875 -2.1875 C 3.796875 -2.488281 3.75 -2.765625 3.65625 -3.015625 C 3.5625 -3.265625 3.421875 -3.457031 3.234375 -3.59375 C 3.046875 -3.738281 2.804688 -3.8125 2.515625 -3.8125 C 2.109375 -3.8125 1.796875 -3.660156 1.578125 -3.359375 C 1.367188 -3.066406 1.265625 -2.675781 1.265625 -2.1875 Z M 1.265625 -2.1875 "/></g></g></g></svg>